<?xml version="1.0" encoding="UTF-8" standalone="yes"?><svg xmlns="http://www.w3.org/2000/svg" xmlns:xlink="http://www.w3.org/1999/xlink" height="658px" style="width:1534px;height:658px;" version="1.1" viewBox="0 0 1534 658" width="1534px"><defs><filter height="300%" id="f1" width="300%" x="-1" y="-1"><feGaussianBlur result="blurOut" stdDeviation="2.0"/><feColorMatrix in="blurOut" result="blurOut2" type="matrix" values="0 0 0 0 0 0 0 0 0 0 0 0 0 0 0 0 0 0 .4 0"/><feOffset dx="4.0" dy="4.0" in="blurOut2" result="blurOut3"/><feBlend in="SourceGraphic" in2="blurOut3" mode="normal"/></filter></defs><g><rect fill="#FEFECE" filter="url(#f1)" height="60.8047" style="stroke: #A80036; stroke-width: 1.5;" width="134" x="539" y="8"/><ellipse cx="554" cy="24" fill="#ADD1B2" rx="11" ry="11" style="stroke: #A80036; stroke-width: 1.0;"/><path d="M556.3438,19.6719 L556.5156,19.75 C556.7344,19.4375 556.9375,19.3438 557.2344,19.3438 C557.5313,19.3438 557.8125,19.4844 557.9688,19.75 C558.0625,19.9063 558.0781,20.0313 558.0781,20.4688 L558.0781,21.8906 C558.0781,22.3125 558.0469,22.5 557.9375,22.6563 C557.7656,22.875 557.5,23.0156 557.2344,23.0156 C557.0156,23.0156 556.7813,22.9063 556.6406,22.7656 C556.5,22.6406 556.4688,22.5156 556.4063,22.1094 C556.3125,21.7031 556.1406,21.4844 555.6563,21.2031 C555.1875,20.9531 554.5781,20.7969 554,20.7969 C552.2656,20.7969 551.0156,22.1094 551.0156,23.8906 L551.0156,24.9844 C551.0156,26.6875 552.3125,27.7813 554.3594,27.7813 C555.125,27.7813 555.8125,27.6563 556.2344,27.3906 C556.4219,27.2969 556.4219,27.2969 556.875,26.8125 C557.0625,26.625 557.2656,26.5469 557.4844,26.5469 C557.9531,26.5469 558.3438,26.9375 558.3438,27.3906 C558.3438,27.7813 558.0156,28.2344 557.4375,28.6406 C556.6875,29.1875 555.5313,29.4844 554.3125,29.4844 C551.4219,29.4844 549.3125,27.5938 549.3125,25.0156 L549.3125,23.8906 C549.3125,21.1719 551.3125,19.0938 553.9375,19.0938 C554.8125,19.0938 555.4063,19.2344 556.3438,19.6719 Z "/><text fill="#000000" font-family="sans-serif" font-size="12" lengthAdjust="spacingAndGlyphs" textLength="102" x="568" y="28.1543">NamedIndividual</text><line style="stroke: #A80036; stroke-width: 1.5;" x1="540" x2="672" y1="40" y2="40"/><line style="stroke: #A80036; stroke-width: 1.5;" x1="540" x2="672" y1="48" y2="48"/><text fill="#000000" font-family="sans-serif" font-size="11" lengthAdjust="spacingAndGlyphs" textLength="24" x="545" y="62.2104">rdf()</text><rect fill="#FEFECE" filter="url(#f1)" height="112.0234" style="stroke: #A80036; stroke-width: 1.5;" width="100" x="60" y="186.5"/><ellipse cx="79.05" cy="202.5" fill="#ADD1B2" rx="11" ry="11" style="stroke: #A80036; stroke-width: 1.0;"/><path d="M81.3938,198.1719 L81.5656,198.25 C81.7844,197.9375 81.9875,197.8438 82.2844,197.8438 C82.5813,197.8438 82.8625,197.9844 83.0188,198.25 C83.1125,198.4063 83.1281,198.5313 83.1281,198.9688 L83.1281,200.3906 C83.1281,200.8125 83.0969,201 82.9875,201.1563 C82.8156,201.375 82.55,201.5156 82.2844,201.5156 C82.0656,201.5156 81.8313,201.4063 81.6906,201.2656 C81.55,201.1406 81.5188,201.0156 81.4563,200.6094 C81.3625,200.2031 81.1906,199.9844 80.7063,199.7031 C80.2375,199.4531 79.6281,199.2969 79.05,199.2969 C77.3156,199.2969 76.0656,200.6094 76.0656,202.3906 L76.0656,203.4844 C76.0656,205.1875 77.3625,206.2813 79.4094,206.2813 C80.175,206.2813 80.8625,206.1563 81.2844,205.8906 C81.4719,205.7969 81.4719,205.7969 81.925,205.3125 C82.1125,205.125 82.3156,205.0469 82.5344,205.0469 C83.0031,205.0469 83.3938,205.4375 83.3938,205.8906 C83.3938,206.2813 83.0656,206.7344 82.4875,207.1406 C81.7375,207.6875 80.5813,207.9844 79.3625,207.9844 C76.4719,207.9844 74.3625,206.0938 74.3625,203.5156 L74.3625,202.3906 C74.3625,199.6719 76.3625,197.5938 78.9875,197.5938 C79.8625,197.5938 80.4563,197.7344 81.3938,198.1719 Z "/><text fill="#000000" font-family="sans-serif" font-size="12" lengthAdjust="spacingAndGlyphs" textLength="59" x="93.95" y="206.6543">Organism</text><line style="stroke: #A80036; stroke-width: 1.5;" x1="61" x2="159" y1="218.5" y2="218.5"/><text fill="#000000" font-family="sans-serif" font-size="11" lengthAdjust="spacingAndGlyphs" textLength="27" x="66" y="232.7104">label</text><text fill="#000000" font-family="sans-serif" font-size="11" lengthAdjust="spacingAndGlyphs" textLength="88" x="66" y="245.5151">scientific_name</text><text fill="#000000" font-family="sans-serif" font-size="11" lengthAdjust="spacingAndGlyphs" textLength="87" x="66" y="258.3198">common_name</text><text fill="#000000" font-family="sans-serif" font-size="11" lengthAdjust="spacingAndGlyphs" textLength="71" x="66" y="271.1245">taxonomy_id</text><line style="stroke: #A80036; stroke-width: 1.5;" x1="61" x2="159" y1="277.7188" y2="277.7188"/><text fill="#000000" font-family="sans-serif" font-size="11" lengthAdjust="spacingAndGlyphs" textLength="24" x="66" y="291.9292">rdf()</text><rect fill="#FEFECE" filter="url(#f1)" height="112.0234" style="stroke: #A80036; stroke-width: 1.5;" width="173" x="195.5" y="186.5"/><ellipse cx="257.75" cy="202.5" fill="#ADD1B2" rx="11" ry="11" style="stroke: #A80036; stroke-width: 1.0;"/><path d="M260.0938,198.1719 L260.2656,198.25 C260.4844,197.9375 260.6875,197.8438 260.9844,197.8438 C261.2813,197.8438 261.5625,197.9844 261.7188,198.25 C261.8125,198.4063 261.8281,198.5313 261.8281,198.9688 L261.8281,200.3906 C261.8281,200.8125 261.7969,201 261.6875,201.1563 C261.5156,201.375 261.25,201.5156 260.9844,201.5156 C260.7656,201.5156 260.5313,201.4063 260.3906,201.2656 C260.25,201.1406 260.2188,201.0156 260.1563,200.6094 C260.0625,200.2031 259.8906,199.9844 259.4063,199.7031 C258.9375,199.4531 258.3281,199.2969 257.75,199.2969 C256.0156,199.2969 254.7656,200.6094 254.7656,202.3906 L254.7656,203.4844 C254.7656,205.1875 256.0625,206.2813 258.1094,206.2813 C258.875,206.2813 259.5625,206.1563 259.9844,205.8906 C260.1719,205.7969 260.1719,205.7969 260.625,205.3125 C260.8125,205.125 261.0156,205.0469 261.2344,205.0469 C261.7031,205.0469 262.0938,205.4375 262.0938,205.8906 C262.0938,206.2813 261.7656,206.7344 261.1875,207.1406 C260.4375,207.6875 259.2813,207.9844 258.0625,207.9844 C255.1719,207.9844 253.0625,206.0938 253.0625,203.5156 L253.0625,202.3906 C253.0625,199.6719 255.0625,197.5938 257.6875,197.5938 C258.5625,197.5938 259.1563,197.7344 260.0938,198.1719 Z "/><text fill="#000000" font-family="sans-serif" font-size="12" lengthAdjust="spacingAndGlyphs" textLength="40" x="278.25" y="206.6543">Contig</text><line style="stroke: #A80036; stroke-width: 1.5;" x1="196.5" x2="367.5" y1="218.5" y2="218.5"/><text fill="#000000" font-family="sans-serif" font-size="11" lengthAdjust="spacingAndGlyphs" textLength="46" x="201.5" y="232.7104">genome</text><text fill="#000000" font-family="sans-serif" font-size="11" lengthAdjust="spacingAndGlyphs" textLength="55" x="201.5" y="245.5151">sequence</text><text fill="#000000" font-family="sans-serif" font-size="11" lengthAdjust="spacingAndGlyphs" textLength="43" x="201.5" y="258.3198">is_from</text><line style="stroke: #A80036; stroke-width: 1.5;" x1="196.5" x2="367.5" y1="264.9141" y2="264.9141"/><text fill="#000000" font-family="sans-serif" font-size="11" lengthAdjust="spacingAndGlyphs" textLength="24" x="201.5" y="279.1245">rdf()</text><text fill="#000000" font-family="sans-serif" font-size="11" lengthAdjust="spacingAndGlyphs" textLength="161" x="201.5" y="291.9292">add_seq_validation(boolean)</text><rect fill="#FEFECE" filter="url(#f1)" height="227.2656" style="stroke: #A80036; stroke-width: 1.5;" width="185" x="403.5" y="129"/><ellipse cx="465.75" cy="145" fill="#ADD1B2" rx="11" ry="11" style="stroke: #A80036; stroke-width: 1.0;"/><path d="M468.0938,140.6719 L468.2656,140.75 C468.4844,140.4375 468.6875,140.3438 468.9844,140.3438 C469.2813,140.3438 469.5625,140.4844 469.7188,140.75 C469.8125,140.9063 469.8281,141.0313 469.8281,141.4688 L469.8281,142.8906 C469.8281,143.3125 469.7969,143.5 469.6875,143.6563 C469.5156,143.875 469.25,144.0156 468.9844,144.0156 C468.7656,144.0156 468.5313,143.9063 468.3906,143.7656 C468.25,143.6406 468.2188,143.5156 468.1563,143.1094 C468.0625,142.7031 467.8906,142.4844 467.4063,142.2031 C466.9375,141.9531 466.3281,141.7969 465.75,141.7969 C464.0156,141.7969 462.7656,143.1094 462.7656,144.8906 L462.7656,145.9844 C462.7656,147.6875 464.0625,148.7813 466.1094,148.7813 C466.875,148.7813 467.5625,148.6563 467.9844,148.3906 C468.1719,148.2969 468.1719,148.2969 468.625,147.8125 C468.8125,147.625 469.0156,147.5469 469.2344,147.5469 C469.7031,147.5469 470.0938,147.9375 470.0938,148.3906 C470.0938,148.7813 469.7656,149.2344 469.1875,149.6406 C468.4375,150.1875 467.2813,150.4844 466.0625,150.4844 C463.1719,150.4844 461.0625,148.5938 461.0625,146.0156 L461.0625,144.8906 C461.0625,142.1719 463.0625,140.0938 465.6875,140.0938 C466.5625,140.0938 467.1563,140.2344 468.0938,140.6719 Z "/><text fill="#000000" font-family="sans-serif" font-size="12" lengthAdjust="spacingAndGlyphs" textLength="52" x="486.25" y="149.1543">Genome</text><line style="stroke: #A80036; stroke-width: 1.5;" x1="404.5" x2="587.5" y1="161" y2="161"/><line style="stroke: #A80036; stroke-width: 1.5;" x1="404.5" x2="587.5" y1="169" y2="169"/><text fill="#000000" font-family="sans-serif" font-size="11" lengthAdjust="spacingAndGlyphs" textLength="24" x="409.5" y="183.2104">rdf()</text><text fill="#000000" font-family="sans-serif" font-size="11" lengthAdjust="spacingAndGlyphs" textLength="112" x="409.5" y="196.0151">isolation_date(date)</text><text fill="#000000" font-family="sans-serif" font-size="11" lengthAdjust="spacingAndGlyphs" textLength="150" x="409.5" y="208.8198">isolation_location(location)</text><text fill="#000000" font-family="sans-serif" font-size="11" lengthAdjust="spacingAndGlyphs" textLength="122" x="409.5" y="221.6245">accession(accession)</text><text fill="#000000" font-family="sans-serif" font-size="11" lengthAdjust="spacingAndGlyphs" textLength="120" x="409.5" y="234.4292">bioproject(bioproject)</text><text fill="#000000" font-family="sans-serif" font-size="11" lengthAdjust="spacingAndGlyphs" textLength="126" x="409.5" y="247.2339">biosample(biosample)</text><text fill="#000000" font-family="sans-serif" font-size="11" lengthAdjust="spacingAndGlyphs" textLength="74" x="409.5" y="260.0386">strain(strain)</text><text fill="#000000" font-family="sans-serif" font-size="11" lengthAdjust="spacingAndGlyphs" textLength="116" x="409.5" y="272.8433">organism(organism)</text><text fill="#000000" font-family="sans-serif" font-size="11" lengthAdjust="spacingAndGlyphs" textLength="145" x="409.5" y="285.6479">isolation_host(from_host)</text><text fill="#000000" font-family="sans-serif" font-size="11" lengthAdjust="spacingAndGlyphs" textLength="173" x="409.5" y="298.4526">isolation_source(from_source)</text><text fill="#000000" font-family="sans-serif" font-size="11" lengthAdjust="spacingAndGlyphs" textLength="122" x="409.5" y="311.2573">syndrome(syndrome)</text><text fill="#000000" font-family="sans-serif" font-size="11" lengthAdjust="spacingAndGlyphs" textLength="110" x="409.5" y="324.062">Htype(Htype=None)</text><text fill="#000000" font-family="sans-serif" font-size="11" lengthAdjust="spacingAndGlyphs" textLength="112" x="409.5" y="336.8667">Otype(Otype=None)</text><text fill="#000000" font-family="sans-serif" font-size="11" lengthAdjust="spacingAndGlyphs" textLength="62" x="409.5" y="349.6714">User(User)</text><rect fill="#FEFECE" filter="url(#f1)" height="176.0469" style="stroke: #A80036; stroke-width: 1.5;" width="184" x="624" y="154.5"/><ellipse cx="695.25" cy="170.5" fill="#ADD1B2" rx="11" ry="11" style="stroke: #A80036; stroke-width: 1.0;"/><path d="M697.5938,166.1719 L697.7656,166.25 C697.9844,165.9375 698.1875,165.8438 698.4844,165.8438 C698.7813,165.8438 699.0625,165.9844 699.2188,166.25 C699.3125,166.4063 699.3281,166.5313 699.3281,166.9688 L699.3281,168.3906 C699.3281,168.8125 699.2969,169 699.1875,169.1563 C699.0156,169.375 698.75,169.5156 698.4844,169.5156 C698.2656,169.5156 698.0313,169.4063 697.8906,169.2656 C697.75,169.1406 697.7188,169.0156 697.6563,168.6094 C697.5625,168.2031 697.3906,167.9844 696.9063,167.7031 C696.4375,167.4531 695.8281,167.2969 695.25,167.2969 C693.5156,167.2969 692.2656,168.6094 692.2656,170.3906 L692.2656,171.4844 C692.2656,173.1875 693.5625,174.2813 695.6094,174.2813 C696.375,174.2813 697.0625,174.1563 697.4844,173.8906 C697.6719,173.7969 697.6719,173.7969 698.125,173.3125 C698.3125,173.125 698.5156,173.0469 698.7344,173.0469 C699.2031,173.0469 699.5938,173.4375 699.5938,173.8906 C699.5938,174.2813 699.2656,174.7344 698.6875,175.1406 C697.9375,175.6875 696.7813,175.9844 695.5625,175.9844 C692.6719,175.9844 690.5625,174.0938 690.5625,171.5156 L690.5625,170.3906 C690.5625,167.6719 692.5625,165.5938 695.1875,165.5938 C696.0625,165.5938 696.6563,165.7344 697.5938,166.1719 Z "/><text fill="#000000" font-family="sans-serif" font-size="12" lengthAdjust="spacingAndGlyphs" textLength="33" x="715.75" y="174.6543">Gene</text><line style="stroke: #A80036; stroke-width: 1.5;" x1="625" x2="807" y1="186.5" y2="186.5"/><line style="stroke: #A80036; stroke-width: 1.5;" x1="625" x2="807" y1="194.5" y2="194.5"/><text fill="#000000" font-family="sans-serif" font-size="11" lengthAdjust="spacingAndGlyphs" textLength="24" x="630" y="208.7104">rdf()</text><text fill="#000000" font-family="sans-serif" font-size="11" lengthAdjust="spacingAndGlyphs" textLength="64" x="630" y="221.5151">gene(gene)</text><text fill="#000000" font-family="sans-serif" font-size="11" lengthAdjust="spacingAndGlyphs" textLength="74" x="630" y="234.3198">vfo_id(vfo_id)</text><text fill="#000000" font-family="sans-serif" font-size="11" lengthAdjust="spacingAndGlyphs" textLength="117" x="630" y="247.1245">category(categories)</text><text fill="#000000" font-family="sans-serif" font-size="11" lengthAdjust="spacingAndGlyphs" textLength="159" x="630" y="259.9292">subcategory(subcategories)</text><text fill="#000000" font-family="sans-serif" font-size="11" lengthAdjust="spacingAndGlyphs" textLength="88" x="630" y="272.7339">uniprot(uniprot)</text><text fill="#000000" font-family="sans-serif" font-size="11" lengthAdjust="spacingAndGlyphs" textLength="124" x="630" y="285.5386">gene_type(gene_type)</text><text fill="#000000" font-family="sans-serif" font-size="11" lengthAdjust="spacingAndGlyphs" textLength="72" x="630" y="298.3433">cutoff(cutoff)</text><text fill="#000000" font-family="sans-serif" font-size="11" lengthAdjust="spacingAndGlyphs" textLength="172" x="630" y="311.1479">aro_accession(aro_accession)</text><text fill="#000000" font-family="sans-serif" font-size="11" lengthAdjust="spacingAndGlyphs" textLength="78" x="630" y="323.9526">aro_id(aro_id)</text><rect fill="#FEFECE" filter="url(#f1)" height="150.4375" style="stroke: #A80036; stroke-width: 1.5;" width="118" x="843" y="167.5"/><ellipse cx="858" cy="183.5" fill="#ADD1B2" rx="11" ry="11" style="stroke: #A80036; stroke-width: 1.0;"/><path d="M860.3438,179.1719 L860.5156,179.25 C860.7344,178.9375 860.9375,178.8438 861.2344,178.8438 C861.5313,178.8438 861.8125,178.9844 861.9688,179.25 C862.0625,179.4063 862.0781,179.5313 862.0781,179.9688 L862.0781,181.3906 C862.0781,181.8125 862.0469,182 861.9375,182.1563 C861.7656,182.375 861.5,182.5156 861.2344,182.5156 C861.0156,182.5156 860.7813,182.4063 860.6406,182.2656 C860.5,182.1406 860.4688,182.0156 860.4063,181.6094 C860.3125,181.2031 860.1406,180.9844 859.6563,180.7031 C859.1875,180.4531 858.5781,180.2969 858,180.2969 C856.2656,180.2969 855.0156,181.6094 855.0156,183.3906 L855.0156,184.4844 C855.0156,186.1875 856.3125,187.2813 858.3594,187.2813 C859.125,187.2813 859.8125,187.1563 860.2344,186.8906 C860.4219,186.7969 860.4219,186.7969 860.875,186.3125 C861.0625,186.125 861.2656,186.0469 861.4844,186.0469 C861.9531,186.0469 862.3438,186.4375 862.3438,186.8906 C862.3438,187.2813 862.0156,187.7344 861.4375,188.1406 C860.6875,188.6875 859.5313,188.9844 858.3125,188.9844 C855.4219,188.9844 853.3125,187.0938 853.3125,184.5156 L853.3125,183.3906 C853.3125,180.6719 855.3125,178.5938 857.9375,178.5938 C858.8125,178.5938 859.4063,178.7344 860.3438,179.1719 Z "/><text fill="#000000" font-family="sans-serif" font-size="12" lengthAdjust="spacingAndGlyphs" textLength="86" x="872" y="187.6543">GeneLocation</text><line style="stroke: #A80036; stroke-width: 1.5;" x1="844" x2="960" y1="199.5" y2="199.5"/><text fill="#000000" font-family="sans-serif" font-size="11" lengthAdjust="spacingAndGlyphs" textLength="28" x="849" y="213.7104">gene</text><text fill="#000000" font-family="sans-serif" font-size="11" lengthAdjust="spacingAndGlyphs" textLength="34" x="849" y="226.5151">contig</text><text fill="#000000" font-family="sans-serif" font-size="11" lengthAdjust="spacingAndGlyphs" textLength="31" x="849" y="239.3198">begin</text><text fill="#000000" font-family="sans-serif" font-size="11" lengthAdjust="spacingAndGlyphs" textLength="21" x="849" y="252.1245">end</text><text fill="#000000" font-family="sans-serif" font-size="11" lengthAdjust="spacingAndGlyphs" textLength="21" x="849" y="264.9292">seq</text><text fill="#000000" font-family="sans-serif" font-size="11" lengthAdjust="spacingAndGlyphs" textLength="32" x="849" y="277.7339">cutoff</text><text fill="#000000" font-family="sans-serif" font-size="11" lengthAdjust="spacingAndGlyphs" textLength="66" x="849" y="290.5386">is_ref_gene</text><line style="stroke: #A80036; stroke-width: 1.5;" x1="844" x2="960" y1="297.1328" y2="297.1328"/><text fill="#000000" font-family="sans-serif" font-size="11" lengthAdjust="spacingAndGlyphs" textLength="24" x="849" y="311.3433">rdf()</text><rect fill="#FEFECE" filter="url(#f1)" height="60.8047" style="stroke: #A80036; stroke-width: 1.5;" width="87" x="996.5" y="212"/><ellipse cx="1011.5" cy="228" fill="#ADD1B2" rx="11" ry="11" style="stroke: #A80036; stroke-width: 1.0;"/><path d="M1013.8438,223.6719 L1014.0156,223.75 C1014.2344,223.4375 1014.4375,223.3438 1014.7344,223.3438 C1015.0313,223.3438 1015.3125,223.4844 1015.4688,223.75 C1015.5625,223.9063 1015.5781,224.0313 1015.5781,224.4688 L1015.5781,225.8906 C1015.5781,226.3125 1015.5469,226.5 1015.4375,226.6563 C1015.2656,226.875 1015,227.0156 1014.7344,227.0156 C1014.5156,227.0156 1014.2813,226.9063 1014.1406,226.7656 C1014,226.6406 1013.9688,226.5156 1013.9063,226.1094 C1013.8125,225.7031 1013.6406,225.4844 1013.1563,225.2031 C1012.6875,224.9531 1012.0781,224.7969 1011.5,224.7969 C1009.7656,224.7969 1008.5156,226.1094 1008.5156,227.8906 L1008.5156,228.9844 C1008.5156,230.6875 1009.8125,231.7813 1011.8594,231.7813 C1012.625,231.7813 1013.3125,231.6563 1013.7344,231.3906 C1013.9219,231.2969 1013.9219,231.2969 1014.375,230.8125 C1014.5625,230.625 1014.7656,230.5469 1014.9844,230.5469 C1015.4531,230.5469 1015.8438,230.9375 1015.8438,231.3906 C1015.8438,231.7813 1015.5156,232.2344 1014.9375,232.6406 C1014.1875,233.1875 1013.0313,233.4844 1011.8125,233.4844 C1008.9219,233.4844 1006.8125,231.5938 1006.8125,229.0156 L1006.8125,227.8906 C1006.8125,225.1719 1008.8125,223.0938 1011.4375,223.0938 C1012.3125,223.0938 1012.9063,223.2344 1013.8438,223.6719 Z "/><text fill="#000000" font-family="sans-serif" font-size="12" lengthAdjust="spacingAndGlyphs" textLength="55" x="1025.5" y="232.1543">Attribute</text><line style="stroke: #A80036; stroke-width: 1.5;" x1="997.5" x2="1082.5" y1="244" y2="244"/><line style="stroke: #A80036; stroke-width: 1.5;" x1="997.5" x2="1082.5" y1="252" y2="252"/><text fill="#000000" font-family="sans-serif" font-size="11" lengthAdjust="spacingAndGlyphs" textLength="24" x="1002.5" y="266.2104">rdf()</text><rect fill="#FEFECE" filter="url(#f1)" height="73.6094" style="stroke: #A80036; stroke-width: 1.5;" width="117" x="843.5" y="416"/><ellipse cx="858.5" cy="432" fill="#ADD1B2" rx="11" ry="11" style="stroke: #A80036; stroke-width: 1.0;"/><path d="M860.8438,427.6719 L861.0156,427.75 C861.2344,427.4375 861.4375,427.3438 861.7344,427.3438 C862.0313,427.3438 862.3125,427.4844 862.4688,427.75 C862.5625,427.9063 862.5781,428.0313 862.5781,428.4688 L862.5781,429.8906 C862.5781,430.3125 862.5469,430.5 862.4375,430.6563 C862.2656,430.875 862,431.0156 861.7344,431.0156 C861.5156,431.0156 861.2813,430.9063 861.1406,430.7656 C861,430.6406 860.9688,430.5156 860.9063,430.1094 C860.8125,429.7031 860.6406,429.4844 860.1563,429.2031 C859.6875,428.9531 859.0781,428.7969 858.5,428.7969 C856.7656,428.7969 855.5156,430.1094 855.5156,431.8906 L855.5156,432.9844 C855.5156,434.6875 856.8125,435.7813 858.8594,435.7813 C859.625,435.7813 860.3125,435.6563 860.7344,435.3906 C860.9219,435.2969 860.9219,435.2969 861.375,434.8125 C861.5625,434.625 861.7656,434.5469 861.9844,434.5469 C862.4531,434.5469 862.8438,434.9375 862.8438,435.3906 C862.8438,435.7813 862.5156,436.2344 861.9375,436.6406 C861.1875,437.1875 860.0313,437.4844 858.8125,437.4844 C855.9219,437.4844 853.8125,435.5938 853.8125,433.0156 L853.8125,431.8906 C853.8125,429.1719 855.8125,427.0938 858.4375,427.0938 C859.3125,427.0938 859.9063,427.2344 860.8438,427.6719 Z "/><text fill="#000000" font-family="sans-serif" font-size="12" lengthAdjust="spacingAndGlyphs" textLength="85" x="872.5" y="436.1543">HostCategory</text><line style="stroke: #A80036; stroke-width: 1.5;" x1="844.5" x2="959.5" y1="448" y2="448"/><text fill="#000000" font-family="sans-serif" font-size="11" lengthAdjust="spacingAndGlyphs" textLength="27" x="849.5" y="462.2104">label</text><line style="stroke: #A80036; stroke-width: 1.5;" x1="844.5" x2="959.5" y1="468.8047" y2="468.8047"/><text fill="#000000" font-family="sans-serif" font-size="11" lengthAdjust="spacingAndGlyphs" textLength="24" x="849.5" y="483.0151">rdf()</text><rect fill="#FEFECE" filter="url(#f1)" height="60.8047" style="stroke: #A80036; stroke-width: 1.5;" width="88" x="996" y="422.5"/><ellipse cx="1011" cy="438.5" fill="#ADD1B2" rx="11" ry="11" style="stroke: #A80036; stroke-width: 1.0;"/><path d="M1013.3438,434.1719 L1013.5156,434.25 C1013.7344,433.9375 1013.9375,433.8438 1014.2344,433.8438 C1014.5313,433.8438 1014.8125,433.9844 1014.9688,434.25 C1015.0625,434.4063 1015.0781,434.5313 1015.0781,434.9688 L1015.0781,436.3906 C1015.0781,436.8125 1015.0469,437 1014.9375,437.1563 C1014.7656,437.375 1014.5,437.5156 1014.2344,437.5156 C1014.0156,437.5156 1013.7813,437.4063 1013.6406,437.2656 C1013.5,437.1406 1013.4688,437.0156 1013.4063,436.6094 C1013.3125,436.2031 1013.1406,435.9844 1012.6563,435.7031 C1012.1875,435.4531 1011.5781,435.2969 1011,435.2969 C1009.2656,435.2969 1008.0156,436.6094 1008.0156,438.3906 L1008.0156,439.4844 C1008.0156,441.1875 1009.3125,442.2813 1011.3594,442.2813 C1012.125,442.2813 1012.8125,442.1563 1013.2344,441.8906 C1013.4219,441.7969 1013.4219,441.7969 1013.875,441.3125 C1014.0625,441.125 1014.2656,441.0469 1014.4844,441.0469 C1014.9531,441.0469 1015.3438,441.4375 1015.3438,441.8906 C1015.3438,442.2813 1015.0156,442.7344 1014.4375,443.1406 C1013.6875,443.6875 1012.5313,443.9844 1011.3125,443.9844 C1008.4219,443.9844 1006.3125,442.0938 1006.3125,439.5156 L1006.3125,438.3906 C1006.3125,435.6719 1008.3125,433.5938 1010.9375,433.5938 C1011.8125,433.5938 1012.4063,433.7344 1013.3438,434.1719 Z "/><text fill="#000000" font-family="sans-serif" font-size="12" lengthAdjust="spacingAndGlyphs" textLength="56" x="1025" y="442.6543">Serotype</text><line style="stroke: #A80036; stroke-width: 1.5;" x1="997" x2="1083" y1="454.5" y2="454.5"/><line style="stroke: #A80036; stroke-width: 1.5;" x1="997" x2="1083" y1="462.5" y2="462.5"/><text fill="#000000" font-family="sans-serif" font-size="11" lengthAdjust="spacingAndGlyphs" textLength="24" x="1002" y="476.7104">rdf()</text><rect fill="#FEFECE" filter="url(#f1)" height="86.4141" style="stroke: #A80036; stroke-width: 1.5;" width="68" x="903" y="556.5"/><ellipse cx="918" cy="572.5" fill="#ADD1B2" rx="11" ry="11" style="stroke: #A80036; stroke-width: 1.0;"/><path d="M920.3438,568.1719 L920.5156,568.25 C920.7344,567.9375 920.9375,567.8438 921.2344,567.8438 C921.5313,567.8438 921.8125,567.9844 921.9688,568.25 C922.0625,568.4063 922.0781,568.5313 922.0781,568.9688 L922.0781,570.3906 C922.0781,570.8125 922.0469,571 921.9375,571.1563 C921.7656,571.375 921.5,571.5156 921.2344,571.5156 C921.0156,571.5156 920.7813,571.4063 920.6406,571.2656 C920.5,571.1406 920.4688,571.0156 920.4063,570.6094 C920.3125,570.2031 920.1406,569.9844 919.6563,569.7031 C919.1875,569.4531 918.5781,569.2969 918,569.2969 C916.2656,569.2969 915.0156,570.6094 915.0156,572.3906 L915.0156,573.4844 C915.0156,575.1875 916.3125,576.2813 918.3594,576.2813 C919.125,576.2813 919.8125,576.1563 920.2344,575.8906 C920.4219,575.7969 920.4219,575.7969 920.875,575.3125 C921.0625,575.125 921.2656,575.0469 921.4844,575.0469 C921.9531,575.0469 922.3438,575.4375 922.3438,575.8906 C922.3438,576.2813 922.0156,576.7344 921.4375,577.1406 C920.6875,577.6875 919.5313,577.9844 918.3125,577.9844 C915.4219,577.9844 913.3125,576.0938 913.3125,573.5156 L913.3125,572.3906 C913.3125,569.6719 915.3125,567.5938 917.9375,567.5938 C918.8125,567.5938 919.4063,567.7344 920.3438,568.1719 Z "/><text fill="#000000" font-family="sans-serif" font-size="12" lengthAdjust="spacingAndGlyphs" textLength="36" x="932" y="576.6543">Otype</text><line style="stroke: #A80036; stroke-width: 1.5;" x1="904" x2="970" y1="588.5" y2="588.5"/><text fill="#000000" font-family="sans-serif" font-size="11" lengthAdjust="spacingAndGlyphs" textLength="10" x="909" y="602.7104">id</text><text fill="#000000" font-family="sans-serif" font-size="11" lengthAdjust="spacingAndGlyphs" textLength="32" x="909" y="615.5151">name</text><line style="stroke: #A80036; stroke-width: 1.5;" x1="904" x2="970" y1="622.1094" y2="622.1094"/><text fill="#000000" font-family="sans-serif" font-size="11" lengthAdjust="spacingAndGlyphs" textLength="24" x="909" y="636.3198">rdf()</text><rect fill="#FEFECE" filter="url(#f1)" height="86.4141" style="stroke: #A80036; stroke-width: 1.5;" width="68" x="1006" y="556.5"/><ellipse cx="1021" cy="572.5" fill="#ADD1B2" rx="11" ry="11" style="stroke: #A80036; stroke-width: 1.0;"/><path d="M1023.3438,568.1719 L1023.5156,568.25 C1023.7344,567.9375 1023.9375,567.8438 1024.2344,567.8438 C1024.5313,567.8438 1024.8125,567.9844 1024.9688,568.25 C1025.0625,568.4063 1025.0781,568.5313 1025.0781,568.9688 L1025.0781,570.3906 C1025.0781,570.8125 1025.0469,571 1024.9375,571.1563 C1024.7656,571.375 1024.5,571.5156 1024.2344,571.5156 C1024.0156,571.5156 1023.7813,571.4063 1023.6406,571.2656 C1023.5,571.1406 1023.4688,571.0156 1023.4063,570.6094 C1023.3125,570.2031 1023.1406,569.9844 1022.6563,569.7031 C1022.1875,569.4531 1021.5781,569.2969 1021,569.2969 C1019.2656,569.2969 1018.0156,570.6094 1018.0156,572.3906 L1018.0156,573.4844 C1018.0156,575.1875 1019.3125,576.2813 1021.3594,576.2813 C1022.125,576.2813 1022.8125,576.1563 1023.2344,575.8906 C1023.4219,575.7969 1023.4219,575.7969 1023.875,575.3125 C1024.0625,575.125 1024.2656,575.0469 1024.4844,575.0469 C1024.9531,575.0469 1025.3438,575.4375 1025.3438,575.8906 C1025.3438,576.2813 1025.0156,576.7344 1024.4375,577.1406 C1023.6875,577.6875 1022.5313,577.9844 1021.3125,577.9844 C1018.4219,577.9844 1016.3125,576.0938 1016.3125,573.5156 L1016.3125,572.3906 C1016.3125,569.6719 1018.3125,567.5938 1020.9375,567.5938 C1021.8125,567.5938 1022.4063,567.7344 1023.3438,568.1719 Z "/><text fill="#000000" font-family="sans-serif" font-size="12" lengthAdjust="spacingAndGlyphs" textLength="36" x="1035" y="576.6543">Htype</text><line style="stroke: #A80036; stroke-width: 1.5;" x1="1007" x2="1073" y1="588.5" y2="588.5"/><text fill="#000000" font-family="sans-serif" font-size="11" lengthAdjust="spacingAndGlyphs" textLength="10" x="1012" y="602.7104">id</text><text fill="#000000" font-family="sans-serif" font-size="11" lengthAdjust="spacingAndGlyphs" textLength="32" x="1012" y="615.5151">name</text><line style="stroke: #A80036; stroke-width: 1.5;" x1="1007" x2="1073" y1="622.1094" y2="622.1094"/><text fill="#000000" font-family="sans-serif" font-size="11" lengthAdjust="spacingAndGlyphs" textLength="24" x="1012" y="636.3198">rdf()</text><rect fill="#FEFECE" filter="url(#f1)" height="60.8047" style="stroke: #A80036; stroke-width: 1.5;" width="140" x="1170" y="422.5"/><ellipse cx="1185" cy="438.5" fill="#ADD1B2" rx="11" ry="11" style="stroke: #A80036; stroke-width: 1.0;"/><path d="M1187.3438,434.1719 L1187.5156,434.25 C1187.7344,433.9375 1187.9375,433.8438 1188.2344,433.8438 C1188.5313,433.8438 1188.8125,433.9844 1188.9688,434.25 C1189.0625,434.4063 1189.0781,434.5313 1189.0781,434.9688 L1189.0781,436.3906 C1189.0781,436.8125 1189.0469,437 1188.9375,437.1563 C1188.7656,437.375 1188.5,437.5156 1188.2344,437.5156 C1188.0156,437.5156 1187.7813,437.4063 1187.6406,437.2656 C1187.5,437.1406 1187.4688,437.0156 1187.4063,436.6094 C1187.3125,436.2031 1187.1406,435.9844 1186.6563,435.7031 C1186.1875,435.4531 1185.5781,435.2969 1185,435.2969 C1183.2656,435.2969 1182.0156,436.6094 1182.0156,438.3906 L1182.0156,439.4844 C1182.0156,441.1875 1183.3125,442.2813 1185.3594,442.2813 C1186.125,442.2813 1186.8125,442.1563 1187.2344,441.8906 C1187.4219,441.7969 1187.4219,441.7969 1187.875,441.3125 C1188.0625,441.125 1188.2656,441.0469 1188.4844,441.0469 C1188.9531,441.0469 1189.3438,441.4375 1189.3438,441.8906 C1189.3438,442.2813 1189.0156,442.7344 1188.4375,443.1406 C1187.6875,443.6875 1186.5313,443.9844 1185.3125,443.9844 C1182.4219,443.9844 1180.3125,442.0938 1180.3125,439.5156 L1180.3125,438.3906 C1180.3125,435.6719 1182.3125,433.5938 1184.9375,433.5938 C1185.8125,433.5938 1186.4063,433.7344 1187.3438,434.1719 Z "/><text fill="#000000" font-family="sans-serif" font-size="12" lengthAdjust="spacingAndGlyphs" textLength="108" x="1199" y="442.6543">IsolationAttribute</text><line style="stroke: #A80036; stroke-width: 1.5;" x1="1171" x2="1309" y1="454.5" y2="454.5"/><line style="stroke: #A80036; stroke-width: 1.5;" x1="1171" x2="1309" y1="462.5" y2="462.5"/><text fill="#000000" font-family="sans-serif" font-size="11" lengthAdjust="spacingAndGlyphs" textLength="24" x="1176" y="476.7104">rdf()</text><rect fill="#FEFECE" filter="url(#f1)" height="99.2188" style="stroke: #A80036; stroke-width: 1.5;" width="92" x="1109" y="550"/><ellipse cx="1124" cy="566" fill="#ADD1B2" rx="11" ry="11" style="stroke: #A80036; stroke-width: 1.0;"/><path d="M1126.3438,561.6719 L1126.5156,561.75 C1126.7344,561.4375 1126.9375,561.3438 1127.2344,561.3438 C1127.5313,561.3438 1127.8125,561.4844 1127.9688,561.75 C1128.0625,561.9063 1128.0781,562.0313 1128.0781,562.4688 L1128.0781,563.8906 C1128.0781,564.3125 1128.0469,564.5 1127.9375,564.6563 C1127.7656,564.875 1127.5,565.0156 1127.2344,565.0156 C1127.0156,565.0156 1126.7813,564.9063 1126.6406,564.7656 C1126.5,564.6406 1126.4688,564.5156 1126.4063,564.1094 C1126.3125,563.7031 1126.1406,563.4844 1125.6563,563.2031 C1125.1875,562.9531 1124.5781,562.7969 1124,562.7969 C1122.2656,562.7969 1121.0156,564.1094 1121.0156,565.8906 L1121.0156,566.9844 C1121.0156,568.6875 1122.3125,569.7813 1124.3594,569.7813 C1125.125,569.7813 1125.8125,569.6563 1126.2344,569.3906 C1126.4219,569.2969 1126.4219,569.2969 1126.875,568.8125 C1127.0625,568.625 1127.2656,568.5469 1127.4844,568.5469 C1127.9531,568.5469 1128.3438,568.9375 1128.3438,569.3906 C1128.3438,569.7813 1128.0156,570.2344 1127.4375,570.6406 C1126.6875,571.1875 1125.5313,571.4844 1124.3125,571.4844 C1121.4219,571.4844 1119.3125,569.5938 1119.3125,567.0156 L1119.3125,565.8906 C1119.3125,563.1719 1121.3125,561.0938 1123.9375,561.0938 C1124.8125,561.0938 1125.4063,561.2344 1126.3438,561.6719 Z "/><text fill="#000000" font-family="sans-serif" font-size="12" lengthAdjust="spacingAndGlyphs" textLength="60" x="1138" y="570.1543">FromHost</text><line style="stroke: #A80036; stroke-width: 1.5;" x1="1110" x2="1200" y1="582" y2="582"/><text fill="#000000" font-family="sans-serif" font-size="11" lengthAdjust="spacingAndGlyphs" textLength="32" x="1115" y="596.2104">name</text><text fill="#000000" font-family="sans-serif" font-size="11" lengthAdjust="spacingAndGlyphs" textLength="25" x="1115" y="609.0151">host</text><text fill="#000000" font-family="sans-serif" font-size="11" lengthAdjust="spacingAndGlyphs" textLength="80" x="1115" y="621.8198">host_category</text><line style="stroke: #A80036; stroke-width: 1.5;" x1="1110" x2="1200" y1="628.4141" y2="628.4141"/><text fill="#000000" font-family="sans-serif" font-size="11" lengthAdjust="spacingAndGlyphs" textLength="24" x="1115" y="642.6245">rdf()</text><rect fill="#FEFECE" filter="url(#f1)" height="86.4141" style="stroke: #A80036; stroke-width: 1.5;" width="107" x="1236.5" y="556.5"/><ellipse cx="1251.5" cy="572.5" fill="#ADD1B2" rx="11" ry="11" style="stroke: #A80036; stroke-width: 1.0;"/><path d="M1253.8438,568.1719 L1254.0156,568.25 C1254.2344,567.9375 1254.4375,567.8438 1254.7344,567.8438 C1255.0313,567.8438 1255.3125,567.9844 1255.4688,568.25 C1255.5625,568.4063 1255.5781,568.5313 1255.5781,568.9688 L1255.5781,570.3906 C1255.5781,570.8125 1255.5469,571 1255.4375,571.1563 C1255.2656,571.375 1255,571.5156 1254.7344,571.5156 C1254.5156,571.5156 1254.2813,571.4063 1254.1406,571.2656 C1254,571.1406 1253.9688,571.0156 1253.9063,570.6094 C1253.8125,570.2031 1253.6406,569.9844 1253.1563,569.7031 C1252.6875,569.4531 1252.0781,569.2969 1251.5,569.2969 C1249.7656,569.2969 1248.5156,570.6094 1248.5156,572.3906 L1248.5156,573.4844 C1248.5156,575.1875 1249.8125,576.2813 1251.8594,576.2813 C1252.625,576.2813 1253.3125,576.1563 1253.7344,575.8906 C1253.9219,575.7969 1253.9219,575.7969 1254.375,575.3125 C1254.5625,575.125 1254.7656,575.0469 1254.9844,575.0469 C1255.4531,575.0469 1255.8438,575.4375 1255.8438,575.8906 C1255.8438,576.2813 1255.5156,576.7344 1254.9375,577.1406 C1254.1875,577.6875 1253.0313,577.9844 1251.8125,577.9844 C1248.9219,577.9844 1246.8125,576.0938 1246.8125,573.5156 L1246.8125,572.3906 C1246.8125,569.6719 1248.8125,567.5938 1251.4375,567.5938 C1252.3125,567.5938 1252.9063,567.7344 1253.8438,568.1719 Z "/><text fill="#000000" font-family="sans-serif" font-size="12" lengthAdjust="spacingAndGlyphs" textLength="75" x="1265.5" y="576.6543">FromSource</text><line style="stroke: #A80036; stroke-width: 1.5;" x1="1237.5" x2="1342.5" y1="588.5" y2="588.5"/><text fill="#000000" font-family="sans-serif" font-size="11" lengthAdjust="spacingAndGlyphs" textLength="27" x="1242.5" y="602.7104">label</text><text fill="#000000" font-family="sans-serif" font-size="11" lengthAdjust="spacingAndGlyphs" textLength="80" x="1242.5" y="615.5151">host_category</text><line style="stroke: #A80036; stroke-width: 1.5;" x1="1237.5" x2="1342.5" y1="622.1094" y2="622.1094"/><text fill="#000000" font-family="sans-serif" font-size="11" lengthAdjust="spacingAndGlyphs" textLength="24" x="1242.5" y="636.3198">rdf()</text><rect fill="#FEFECE" filter="url(#f1)" height="86.4141" style="stroke: #A80036; stroke-width: 1.5;" width="147" x="1378.5" y="556.5"/><ellipse cx="1393.5" cy="572.5" fill="#ADD1B2" rx="11" ry="11" style="stroke: #A80036; stroke-width: 1.0;"/><path d="M1395.8438,568.1719 L1396.0156,568.25 C1396.2344,567.9375 1396.4375,567.8438 1396.7344,567.8438 C1397.0313,567.8438 1397.3125,567.9844 1397.4688,568.25 C1397.5625,568.4063 1397.5781,568.5313 1397.5781,568.9688 L1397.5781,570.3906 C1397.5781,570.8125 1397.5469,571 1397.4375,571.1563 C1397.2656,571.375 1397,571.5156 1396.7344,571.5156 C1396.5156,571.5156 1396.2813,571.4063 1396.1406,571.2656 C1396,571.1406 1395.9688,571.0156 1395.9063,570.6094 C1395.8125,570.2031 1395.6406,569.9844 1395.1563,569.7031 C1394.6875,569.4531 1394.0781,569.2969 1393.5,569.2969 C1391.7656,569.2969 1390.5156,570.6094 1390.5156,572.3906 L1390.5156,573.4844 C1390.5156,575.1875 1391.8125,576.2813 1393.8594,576.2813 C1394.625,576.2813 1395.3125,576.1563 1395.7344,575.8906 C1395.9219,575.7969 1395.9219,575.7969 1396.375,575.3125 C1396.5625,575.125 1396.7656,575.0469 1396.9844,575.0469 C1397.4531,575.0469 1397.8438,575.4375 1397.8438,575.8906 C1397.8438,576.2813 1397.5156,576.7344 1396.9375,577.1406 C1396.1875,577.6875 1395.0313,577.9844 1393.8125,577.9844 C1390.9219,577.9844 1388.8125,576.0938 1388.8125,573.5156 L1388.8125,572.3906 C1388.8125,569.6719 1390.8125,567.5938 1393.4375,567.5938 C1394.3125,567.5938 1394.9063,567.7344 1395.8438,568.1719 Z "/><text fill="#000000" font-family="sans-serif" font-size="12" lengthAdjust="spacingAndGlyphs" textLength="115" x="1407.5" y="576.6543">IsolationSyndrome</text><line style="stroke: #A80036; stroke-width: 1.5;" x1="1379.5" x2="1524.5" y1="588.5" y2="588.5"/><text fill="#000000" font-family="sans-serif" font-size="11" lengthAdjust="spacingAndGlyphs" textLength="27" x="1384.5" y="602.7104">label</text><text fill="#000000" font-family="sans-serif" font-size="11" lengthAdjust="spacingAndGlyphs" textLength="80" x="1384.5" y="615.5151">host_category</text><line style="stroke: #A80036; stroke-width: 1.5;" x1="1379.5" x2="1524.5" y1="622.1094" y2="622.1094"/><text fill="#000000" font-family="sans-serif" font-size="11" lengthAdjust="spacingAndGlyphs" textLength="24" x="1384.5" y="636.3198">rdf()</text><rect fill="#FEFECE" filter="url(#f1)" height="73.6094" style="stroke: #A80036; stroke-width: 1.5;" width="92" x="6" y="416"/><ellipse cx="34.95" cy="432" fill="#ADD1B2" rx="11" ry="11" style="stroke: #A80036; stroke-width: 1.0;"/><path d="M37.2938,427.6719 L37.4656,427.75 C37.6844,427.4375 37.8875,427.3438 38.1844,427.3438 C38.4813,427.3438 38.7625,427.4844 38.9188,427.75 C39.0125,427.9063 39.0281,428.0313 39.0281,428.4688 L39.0281,429.8906 C39.0281,430.3125 38.9969,430.5 38.8875,430.6563 C38.7156,430.875 38.45,431.0156 38.1844,431.0156 C37.9656,431.0156 37.7313,430.9063 37.5906,430.7656 C37.45,430.6406 37.4188,430.5156 37.3563,430.1094 C37.2625,429.7031 37.0906,429.4844 36.6063,429.2031 C36.1375,428.9531 35.5281,428.7969 34.95,428.7969 C33.2156,428.7969 31.9656,430.1094 31.9656,431.8906 L31.9656,432.9844 C31.9656,434.6875 33.2625,435.7813 35.3094,435.7813 C36.075,435.7813 36.7625,435.6563 37.1844,435.3906 C37.3719,435.2969 37.3719,435.2969 37.825,434.8125 C38.0125,434.625 38.2156,434.5469 38.4344,434.5469 C38.9031,434.5469 39.2938,434.9375 39.2938,435.3906 C39.2938,435.7813 38.9656,436.2344 38.3875,436.6406 C37.6375,437.1875 36.4813,437.4844 35.2625,437.4844 C32.3719,437.4844 30.2625,435.5938 30.2625,433.0156 L30.2625,431.8906 C30.2625,429.1719 32.2625,427.0938 34.8875,427.0938 C35.7625,427.0938 36.3563,427.2344 37.2938,427.6719 Z "/><text fill="#000000" font-family="sans-serif" font-size="12" lengthAdjust="spacingAndGlyphs" textLength="29" x="52.05" y="436.1543">Host</text><line style="stroke: #A80036; stroke-width: 1.5;" x1="7" x2="97" y1="448" y2="448"/><text fill="#000000" font-family="sans-serif" font-size="11" lengthAdjust="spacingAndGlyphs" textLength="80" x="12" y="462.2104">host_category</text><line style="stroke: #A80036; stroke-width: 1.5;" x1="7" x2="97" y1="468.8047" y2="468.8047"/><text fill="#000000" font-family="sans-serif" font-size="11" lengthAdjust="spacingAndGlyphs" textLength="24" x="12" y="483.0151">rdf()</text><rect fill="#FEFECE" filter="url(#f1)" height="60.8047" style="stroke: #A80036; stroke-width: 1.5;" width="81" x="133.5" y="422.5"/><ellipse cx="148.5" cy="438.5" fill="#ADD1B2" rx="11" ry="11" style="stroke: #A80036; stroke-width: 1.0;"/><path d="M150.8438,434.1719 L151.0156,434.25 C151.2344,433.9375 151.4375,433.8438 151.7344,433.8438 C152.0313,433.8438 152.3125,433.9844 152.4688,434.25 C152.5625,434.4063 152.5781,434.5313 152.5781,434.9688 L152.5781,436.3906 C152.5781,436.8125 152.5469,437 152.4375,437.1563 C152.2656,437.375 152,437.5156 151.7344,437.5156 C151.5156,437.5156 151.2813,437.4063 151.1406,437.2656 C151,437.1406 150.9688,437.0156 150.9063,436.6094 C150.8125,436.2031 150.6406,435.9844 150.1563,435.7031 C149.6875,435.4531 149.0781,435.2969 148.5,435.2969 C146.7656,435.2969 145.5156,436.6094 145.5156,438.3906 L145.5156,439.4844 C145.5156,441.1875 146.8125,442.2813 148.8594,442.2813 C149.625,442.2813 150.3125,442.1563 150.7344,441.8906 C150.9219,441.7969 150.9219,441.7969 151.375,441.3125 C151.5625,441.125 151.7656,441.0469 151.9844,441.0469 C152.4531,441.0469 152.8438,441.4375 152.8438,441.8906 C152.8438,442.2813 152.5156,442.7344 151.9375,443.1406 C151.1875,443.6875 150.0313,443.9844 148.8125,443.9844 C145.9219,443.9844 143.8125,442.0938 143.8125,439.5156 L143.8125,438.3906 C143.8125,435.6719 145.8125,433.5938 148.4375,433.5938 C149.3125,433.5938 149.9063,433.7344 150.8438,434.1719 Z "/><text fill="#000000" font-family="sans-serif" font-size="12" lengthAdjust="spacingAndGlyphs" textLength="49" x="162.5" y="442.6543">Microbe</text><line style="stroke: #A80036; stroke-width: 1.5;" x1="134.5" x2="213.5" y1="454.5" y2="454.5"/><line style="stroke: #A80036; stroke-width: 1.5;" x1="134.5" x2="213.5" y1="462.5" y2="462.5"/><text fill="#000000" font-family="sans-serif" font-size="11" lengthAdjust="spacingAndGlyphs" textLength="24" x="139.5" y="476.7104">rdf()</text><rect fill="#FEFECE" filter="url(#f1)" height="60.8047" style="stroke: #A80036; stroke-width: 1.5;" width="135" x="309.5" y="422.5"/><ellipse cx="324.5" cy="438.5" fill="#ADD1B2" rx="11" ry="11" style="stroke: #A80036; stroke-width: 1.0;"/><path d="M326.8438,434.1719 L327.0156,434.25 C327.2344,433.9375 327.4375,433.8438 327.7344,433.8438 C328.0313,433.8438 328.3125,433.9844 328.4688,434.25 C328.5625,434.4063 328.5781,434.5313 328.5781,434.9688 L328.5781,436.3906 C328.5781,436.8125 328.5469,437 328.4375,437.1563 C328.2656,437.375 328,437.5156 327.7344,437.5156 C327.5156,437.5156 327.2813,437.4063 327.1406,437.2656 C327,437.1406 326.9688,437.0156 326.9063,436.6094 C326.8125,436.2031 326.6406,435.9844 326.1563,435.7031 C325.6875,435.4531 325.0781,435.2969 324.5,435.2969 C322.7656,435.2969 321.5156,436.6094 321.5156,438.3906 L321.5156,439.4844 C321.5156,441.1875 322.8125,442.2813 324.8594,442.2813 C325.625,442.2813 326.3125,442.1563 326.7344,441.8906 C326.9219,441.7969 326.9219,441.7969 327.375,441.3125 C327.5625,441.125 327.7656,441.0469 327.9844,441.0469 C328.4531,441.0469 328.8438,441.4375 328.8438,441.8906 C328.8438,442.2813 328.5156,442.7344 327.9375,443.1406 C327.1875,443.6875 326.0313,443.9844 324.8125,443.9844 C321.9219,443.9844 319.8125,442.0938 319.8125,439.5156 L319.8125,438.3906 C319.8125,435.6719 321.8125,433.5938 324.4375,433.5938 C325.3125,433.5938 325.9063,433.7344 326.8438,434.1719 Z "/><text fill="#000000" font-family="sans-serif" font-size="12" lengthAdjust="spacingAndGlyphs" textLength="103" x="338.5" y="442.6543">PendingGenome</text><line style="stroke: #A80036; stroke-width: 1.5;" x1="310.5" x2="443.5" y1="454.5" y2="454.5"/><line style="stroke: #A80036; stroke-width: 1.5;" x1="310.5" x2="443.5" y1="462.5" y2="462.5"/><text fill="#000000" font-family="sans-serif" font-size="11" lengthAdjust="spacingAndGlyphs" textLength="24" x="315.5" y="476.7104">rdf()</text><rect fill="#FEFECE" filter="url(#f1)" height="60.8047" style="stroke: #A80036; stroke-width: 1.5;" width="151" x="479.5" y="422.5"/><ellipse cx="494.5" cy="438.5" fill="#ADD1B2" rx="11" ry="11" style="stroke: #A80036; stroke-width: 1.0;"/><path d="M496.8438,434.1719 L497.0156,434.25 C497.2344,433.9375 497.4375,433.8438 497.7344,433.8438 C498.0313,433.8438 498.3125,433.9844 498.4688,434.25 C498.5625,434.4063 498.5781,434.5313 498.5781,434.9688 L498.5781,436.3906 C498.5781,436.8125 498.5469,437 498.4375,437.1563 C498.2656,437.375 498,437.5156 497.7344,437.5156 C497.5156,437.5156 497.2813,437.4063 497.1406,437.2656 C497,437.1406 496.9688,437.0156 496.9063,436.6094 C496.8125,436.2031 496.6406,435.9844 496.1563,435.7031 C495.6875,435.4531 495.0781,435.2969 494.5,435.2969 C492.7656,435.2969 491.5156,436.6094 491.5156,438.3906 L491.5156,439.4844 C491.5156,441.1875 492.8125,442.2813 494.8594,442.2813 C495.625,442.2813 496.3125,442.1563 496.7344,441.8906 C496.9219,441.7969 496.9219,441.7969 497.375,441.3125 C497.5625,441.125 497.7656,441.0469 497.9844,441.0469 C498.4531,441.0469 498.8438,441.4375 498.8438,441.8906 C498.8438,442.2813 498.5156,442.7344 497.9375,443.1406 C497.1875,443.6875 496.0313,443.9844 494.8125,443.9844 C491.9219,443.9844 489.8125,442.0938 489.8125,439.5156 L489.8125,438.3906 C489.8125,435.6719 491.8125,433.5938 494.4375,433.5938 C495.3125,433.5938 495.9063,433.7344 496.8438,434.1719 Z "/><text fill="#000000" font-family="sans-serif" font-size="12" lengthAdjust="spacingAndGlyphs" textLength="119" x="508.5" y="442.6543">CompletedGenome</text><line style="stroke: #A80036; stroke-width: 1.5;" x1="480.5" x2="629.5" y1="454.5" y2="454.5"/><line style="stroke: #A80036; stroke-width: 1.5;" x1="480.5" x2="629.5" y1="462.5" y2="462.5"/><text fill="#000000" font-family="sans-serif" font-size="11" lengthAdjust="spacingAndGlyphs" textLength="24" x="485.5" y="476.7104">rdf()</text><path d="M518.6,49.458 C409.831,63.25 231.819,90.852 178,129 C157.892,143.253 142.647,165.503 131.742,186.465 " fill="none" style="stroke: #A80036; stroke-width: 1.0;"/><polygon fill="none" points="518.007,42.478,538.716,46.964,519.729,56.371,518.007,42.478" style="stroke: #A80036; stroke-width: 1.0;"/><path d="M519.51,64.816 C477.06,79.624 426.481,100.977 386,129 C363.256,144.745 341.827,166.264 324.399,186.267 " fill="none" style="stroke: #A80036; stroke-width: 1.0;"/><polygon fill="none" points="517.498,58.108,538.686,58.373,521.957,71.379,517.498,58.108" style="stroke: #A80036; stroke-width: 1.0;"/><path d="M580.021,87.206 C573.107,99.904 565.335,114.176 557.382,128.78 " fill="none" style="stroke: #A80036; stroke-width: 1.0;"/><polygon fill="none" points="574.057,83.523,589.769,69.306,586.352,90.218,574.057,83.523" style="stroke: #A80036; stroke-width: 1.0;"/><path d="M631.964,87.179 C642.892,107.246 655.963,131.251 668.505,154.281 " fill="none" style="stroke: #A80036; stroke-width: 1.0;"/><polygon fill="none" points="625.648,90.218,622.231,69.306,637.943,83.523,625.648,90.218" style="stroke: #A80036; stroke-width: 1.0;"/><path d="M692.244,61.879 C735.316,76.085 786.342,97.785 825,129 C838.258,139.706 850.15,153.288 860.394,167.283 " fill="none" style="stroke: #A80036; stroke-width: 1.0;"/><polygon fill="none" points="690.076,68.535,673.086,55.872,694.265,55.177,690.076,68.535" style="stroke: #A80036; stroke-width: 1.0;"/><path d="M693.363,40.973 C774.641,46.53 895.315,65.933 978,129 C1005.218,149.76 1022.09,186.072 1031.23,211.821 " fill="none" style="stroke: #A80036; stroke-width: 1.0;"/><polygon fill="none" points="692.908,47.959,673.34,39.829,693.707,33.982,692.908,47.959" style="stroke: #A80036; stroke-width: 1.0;"/><path d="M1015.89,291.354 C1005.046,311.734 991.636,335.487 978,356 C964.349,376.535 947.465,398.171 933.081,415.694 " fill="none" style="stroke: #A80036; stroke-width: 1.0;"/><polygon fill="none" points="1009.78,287.92,1025.24,273.421,1022.2,294.392,1009.78,287.92" style="stroke: #A80036; stroke-width: 1.0;"/><path d="M1040,293.638 C1040,333.763 1040,388.686 1040,422.182 " fill="none" style="stroke: #A80036; stroke-width: 1.0;"/><polygon fill="none" points="1033,293.373,1040,273.373,1047,293.373,1033,293.373" style="stroke: #A80036; stroke-width: 1.0;"/><path d="M1007.24,499.964 C994.351,518.041 979.654,538.66 967.046,556.3481 " fill="none" style="stroke: #A80036; stroke-width: 1.0;"/><polygon fill="none" points="1001.599,495.813,1018.91,483.59,1013,503.94,1001.599,495.813" style="stroke: #A80036; stroke-width: 1.0;"/><path d="M1040,503.631 C1040,520.791 1040,539.845 1040,556.3481 " fill="none" style="stroke: #A80036; stroke-width: 1.0;"/><polygon fill="none" points="1033,503.59,1040,483.59,1047,503.59,1033,503.59" style="stroke: #A80036; stroke-width: 1.0;"/><path d="M1082.6,287.908 C1121.42,328.385 1177.71,387.061 1211.4,422.182 " fill="none" style="stroke: #A80036; stroke-width: 1.0;"/><polygon fill="none" points="1077.45,292.652,1068.66,273.373,1087.55,282.961,1077.45,292.652" style="stroke: #A80036; stroke-width: 1.0;"/><path d="M1212.39,500.94 C1203.17,516.609 1192.88,534.097 1183.59,549.8912 " fill="none" style="stroke: #A80036; stroke-width: 1.0;"/><polygon fill="none" points="1206.42,497.28,1222.59,483.59,1218.49,504.378,1206.42,497.28" style="stroke: #A80036; stroke-width: 1.0;"/><path d="M1256.78,502.496 C1262.82,519.948 1269.58,539.481 1275.41,556.3481 " fill="none" style="stroke: #A80036; stroke-width: 1.0;"/><polygon fill="none" points="1250.16,504.78,1250.24,483.59,1263.39,500.202,1250.16,504.78" style="stroke: #A80036; stroke-width: 1.0;"/><path d="M1300.16,495.003 C1328.31,514.19 1361.8,537.019 1390.16,556.3481 " fill="none" style="stroke: #A80036; stroke-width: 1.0;"/><polygon fill="none" points="1296,500.639,1283.41,483.59,1303.88,489.071,1296,500.639" style="stroke: #A80036; stroke-width: 1.0;"/><path d="M89.2747,318.004 C80.0372,351.211 69.5771,388.813 62.0939,415.714 " fill="none" style="stroke: #A80036; stroke-width: 1.0;"/><polygon fill="none" points="82.5813,315.946,94.6853,298.554,96.0691,319.698,82.5813,315.946" style="stroke: #A80036; stroke-width: 1.0;"/><path d="M132.773,317.691 C143.867,353.833 156.579,395.245 164.919,422.417 " fill="none" style="stroke: #A80036; stroke-width: 1.0;"/><polygon fill="none" points="126.076,319.727,126.899,298.554,139.46,315.619,126.076,319.727" style="stroke: #A80036; stroke-width: 1.0;"/><path d="M421.624,373.814 C411.351,391.814 401.71,408.706 394.036,422.151 " fill="none" style="stroke: #A80036; stroke-width: 1.0;"/><polygon fill="none" points="415.631,370.193,431.624,356.293,427.79,377.133,415.631,370.193" style="stroke: #A80036; stroke-width: 1.0;"/><path d="M533.426,375.758 C538.313,393.029 542.886,409.192 546.554,422.151 " fill="none" style="stroke: #A80036; stroke-width: 1.0;"/><polygon fill="none" points="526.628,377.444,527.918,356.293,540.099,373.632,526.628,377.444" style="stroke: #A80036; stroke-width: 1.0;"/></g></svg>