<?xml version="1.0" encoding="UTF-8" standalone="yes"?><svg xmlns="http://www.w3.org/2000/svg" xmlns:xlink="http://www.w3.org/1999/xlink" height="626px" style="width:1655px;height:626px;" version="1.1" viewBox="0 0 1655 626" width="1655px"><defs><filter height="300%" id="f1" width="300%" x="-1" y="-1"><feGaussianBlur result="blurOut" stdDeviation="2.0"/><feColorMatrix in="blurOut" result="blurOut2" type="matrix" values="0 0 0 0 0 0 0 0 0 0 0 0 0 0 0 0 0 0 .4 0"/><feOffset dx="4.0" dy="4.0" in="blurOut2" result="blurOut3"/><feBlend in="SourceGraphic" in2="blurOut3" mode="normal"/></filter></defs><g><rect fill="#FEFECE" filter="url(#f1)" height="112.0234" style="stroke: #A80036; stroke-width: 1.5;" width="526" x="6" y="27"/><ellipse cx="193.25" cy="43" fill="#ADD1B2" rx="11" ry="11" style="stroke: #A80036; stroke-width: 1.0;"/><path d="M195.5938,38.6719 L195.7656,38.75 C195.9844,38.4375 196.1875,38.3438 196.4844,38.3438 C196.7813,38.3438 197.0625,38.4844 197.2188,38.75 C197.3125,38.9063 197.3281,39.0313 197.3281,39.4688 L197.3281,40.8906 C197.3281,41.3125 197.2969,41.5 197.1875,41.6563 C197.0156,41.875 196.75,42.0156 196.4844,42.0156 C196.2656,42.0156 196.0313,41.9063 195.8906,41.7656 C195.75,41.6406 195.7188,41.5156 195.6563,41.1094 C195.5625,40.7031 195.3906,40.4844 194.9063,40.2031 C194.4375,39.9531 193.8281,39.7969 193.25,39.7969 C191.5156,39.7969 190.2656,41.1094 190.2656,42.8906 L190.2656,43.9844 C190.2656,45.6875 191.5625,46.7813 193.6094,46.7813 C194.375,46.7813 195.0625,46.6563 195.4844,46.3906 C195.6719,46.2969 195.6719,46.2969 196.125,45.8125 C196.3125,45.625 196.5156,45.5469 196.7344,45.5469 C197.2031,45.5469 197.5938,45.9375 197.5938,46.3906 C197.5938,46.7813 197.2656,47.2344 196.6875,47.6406 C195.9375,48.1875 194.7813,48.4844 193.5625,48.4844 C190.6719,48.4844 188.5625,46.5938 188.5625,44.0156 L188.5625,42.8906 C188.5625,40.1719 190.5625,38.0938 193.1875,38.0938 C194.0625,38.0938 194.6563,38.2344 195.5938,38.6719 Z "/><text fill="#000000" font-family="sans-serif" font-size="12" lengthAdjust="spacingAndGlyphs" textLength="143" x="213.75" y="47.1543">GeneLocationUploader</text><line style="stroke: #A80036; stroke-width: 1.5;" x1="7" x2="531" y1="59" y2="59"/><polygon fill="none" points="17,65.9023,21,69.9023,17,73.9023,13,69.9023" style="stroke: #B38D22; stroke-width: 1.0;"/><text fill="#000000" font-family="sans-serif" font-size="11" lengthAdjust="spacingAndGlyphs" textLength="51" x="26" y="73.2104">dict = {}</text><line style="stroke: #A80036; stroke-width: 1.5;" x1="7" x2="531" y1="79.8047" y2="79.8047"/><ellipse cx="17" cy="91.707" fill="#84BE84" rx="3" ry="3" style="stroke: #038048; stroke-width: 1.0;"/><text fill="#000000" font-family="sans-serif" font-size="11" lengthAdjust="spacingAndGlyphs" textLength="49" x="26" y="94.0151">__init__()</text><polygon fill="#FFFF44" points="17,99.5117,21,103.5117,17,107.5117,13,103.5117" style="stroke: #B38D22; stroke-width: 1.0;"/><text fill="#000000" font-family="sans-serif" font-size="11" lengthAdjust="spacingAndGlyphs" textLength="184" x="26" y="106.8198">get_location_name(gene, contig)</text><ellipse cx="17" cy="117.3164" fill="#84BE84" rx="3" ry="3" style="stroke: #038048; stroke-width: 1.0;"/><text fill="#000000" font-family="sans-serif" font-size="11" lengthAdjust="spacingAndGlyphs" textLength="177" x="26" y="119.6245">add_contig(gene_name, contig)</text><ellipse cx="17" cy="130.1211" fill="#84BE84" rx="3" ry="3" style="stroke: #038048; stroke-width: 1.0;"/><text fill="#000000" font-family="sans-serif" font-size="11" lengthAdjust="spacingAndGlyphs" textLength="500" x="26" y="132.4292">create_gene_location(self, name, gene, contig, begin, end, seq, ref_gene, cutoff=None)</text><rect fill="#FEFECE" filter="url(#f1)" height="150.4375" style="stroke: #A80036; stroke-width: 1.5;" width="189" x="67.5" y="256.5"/><ellipse cx="96.9" cy="272.5" fill="#ADD1B2" rx="11" ry="11" style="stroke: #A80036; stroke-width: 1.0;"/><path d="M99.2438,268.1719 L99.4156,268.25 C99.6344,267.9375 99.8375,267.8438 100.1344,267.8438 C100.4313,267.8438 100.7125,267.9844 100.8688,268.25 C100.9625,268.4063 100.9781,268.5313 100.9781,268.9688 L100.9781,270.3906 C100.9781,270.8125 100.9469,271 100.8375,271.1563 C100.6656,271.375 100.4,271.5156 100.1344,271.5156 C99.9156,271.5156 99.6813,271.4063 99.5406,271.2656 C99.4,271.1406 99.3688,271.0156 99.3063,270.6094 C99.2125,270.2031 99.0406,269.9844 98.5563,269.7031 C98.0875,269.4531 97.4781,269.2969 96.9,269.2969 C95.1656,269.2969 93.9156,270.6094 93.9156,272.3906 L93.9156,273.4844 C93.9156,275.1875 95.2125,276.2813 97.2594,276.2813 C98.025,276.2813 98.7125,276.1563 99.1344,275.8906 C99.3219,275.7969 99.3219,275.7969 99.775,275.3125 C99.9625,275.125 100.1656,275.0469 100.3844,275.0469 C100.8531,275.0469 101.2438,275.4375 101.2438,275.8906 C101.2438,276.2813 100.9156,276.7344 100.3375,277.1406 C99.5875,277.6875 98.4313,277.9844 97.2125,277.9844 C94.3219,277.9844 92.2125,276.0938 92.2125,273.5156 L92.2125,272.3906 C92.2125,269.6719 94.2125,267.5938 96.8375,267.5938 C97.7125,267.5938 98.3063,267.7344 99.2438,268.1719 Z "/><text fill="#000000" font-family="sans-serif" font-size="12" lengthAdjust="spacingAndGlyphs" textLength="125" x="114.1" y="276.6543">VFLocationUploader</text><line style="stroke: #A80036; stroke-width: 1.5;" x1="68.5" x2="255.5" y1="288.5" y2="288.5"/><line style="stroke: #A80036; stroke-width: 1.5;" x1="68.5" x2="255.5" y1="296.5" y2="296.5"/><ellipse cx="78.5" cy="308.4023" fill="#84BE84" rx="3" ry="3" style="stroke: #038048; stroke-width: 1.0;"/><text fill="#000000" font-family="sans-serif" font-size="11" lengthAdjust="spacingAndGlyphs" textLength="95" x="87.5" y="310.7104">upload(filename)</text><rect fill="#F24D5C" height="6" style="stroke: #C82930; stroke-width: 1.0;" width="6" x="75.5" y="318.207"/><text fill="#000000" font-family="sans-serif" font-size="11" lengthAdjust="spacingAndGlyphs" textLength="112" x="87.5" y="323.5151">get_gene_names(s)</text><rect fill="#F24D5C" height="6" style="stroke: #C82930; stroke-width: 1.0;" width="6" x="75.5" y="331.0117"/><text fill="#000000" font-family="sans-serif" font-size="11" lengthAdjust="spacingAndGlyphs" textLength="139" x="87.5" y="336.3198">ncbixml_parse(filename)</text><rect fill="#F24D5C" height="6" style="stroke: #C82930; stroke-width: 1.0;" width="6" x="75.5" y="343.8164"/><text fill="#000000" font-family="sans-serif" font-size="11" lengthAdjust="spacingAndGlyphs" textLength="128" x="87.5" y="349.1245">get_reference_genes()</text><rect fill="#F24D5C" height="6" style="stroke: #C82930; stroke-width: 1.0;" width="6" x="75.5" y="356.6211"/><text fill="#000000" font-family="sans-serif" font-size="11" lengthAdjust="spacingAndGlyphs" textLength="163" x="87.5" y="361.9292">create_fasta(genes, out_file)</text><rect fill="#F24D5C" height="6" style="stroke: #C82930; stroke-width: 1.0;" width="6" x="75.5" y="369.4258"/><text fill="#000000" font-family="sans-serif" font-size="11" lengthAdjust="spacingAndGlyphs" textLength="113" x="87.5" y="374.7339">create_db(filename)</text><rect fill="#F24D5C" height="6" style="stroke: #C82930; stroke-width: 1.0;" width="6" x="75.5" y="382.2305"/><text fill="#000000" font-family="sans-serif" font-size="11" lengthAdjust="spacingAndGlyphs" textLength="139" x="87.5" y="387.5386">blastn_commandline(db)</text><rect fill="#F24D5C" height="6" style="stroke: #C82930; stroke-width: 1.0;" width="6" x="75.5" y="395.0352"/><text fill="#000000" font-family="sans-serif" font-size="11" lengthAdjust="spacingAndGlyphs" textLength="80" x="87.5" y="400.3433">parse_result()</text><rect fill="#FEFECE" filter="url(#f1)" height="86.4141" style="stroke: #A80036; stroke-width: 1.5;" width="168" x="292" y="288.5"/><ellipse cx="307" cy="304.5" fill="#ADD1B2" rx="11" ry="11" style="stroke: #A80036; stroke-width: 1.0;"/><path d="M309.3438,300.1719 L309.5156,300.25 C309.7344,299.9375 309.9375,299.8438 310.2344,299.8438 C310.5313,299.8438 310.8125,299.9844 310.9688,300.25 C311.0625,300.4063 311.0781,300.5313 311.0781,300.9688 L311.0781,302.3906 C311.0781,302.8125 311.0469,303 310.9375,303.1563 C310.7656,303.375 310.5,303.5156 310.2344,303.5156 C310.0156,303.5156 309.7813,303.4063 309.6406,303.2656 C309.5,303.1406 309.4688,303.0156 309.4063,302.6094 C309.3125,302.2031 309.1406,301.9844 308.6563,301.7031 C308.1875,301.4531 307.5781,301.2969 307,301.2969 C305.2656,301.2969 304.0156,302.6094 304.0156,304.3906 L304.0156,305.4844 C304.0156,307.1875 305.3125,308.2813 307.3594,308.2813 C308.125,308.2813 308.8125,308.1563 309.2344,307.8906 C309.4219,307.7969 309.4219,307.7969 309.875,307.3125 C310.0625,307.125 310.2656,307.0469 310.4844,307.0469 C310.9531,307.0469 311.3438,307.4375 311.3438,307.8906 C311.3438,308.2813 311.0156,308.7344 310.4375,309.1406 C309.6875,309.6875 308.5313,309.9844 307.3125,309.9844 C304.4219,309.9844 302.3125,308.0938 302.3125,305.5156 L302.3125,304.3906 C302.3125,301.6719 304.3125,299.5938 306.9375,299.5938 C307.8125,299.5938 308.4063,299.7344 309.3438,300.1719 Z "/><text fill="#000000" font-family="sans-serif" font-size="12" lengthAdjust="spacingAndGlyphs" textLength="136" x="321" y="308.6543">AMRLocationUploader</text><line style="stroke: #A80036; stroke-width: 1.5;" x1="293" x2="459" y1="320.5" y2="320.5"/><line style="stroke: #A80036; stroke-width: 1.5;" x1="293" x2="459" y1="328.5" y2="328.5"/><ellipse cx="303" cy="340.4023" fill="#84BE84" rx="3" ry="3" style="stroke: #038048; stroke-width: 1.0;"/><text fill="#000000" font-family="sans-serif" font-size="11" lengthAdjust="spacingAndGlyphs" textLength="95" x="312" y="342.7104">upload(filename)</text><rect fill="#F24D5C" height="6" style="stroke: #C82930; stroke-width: 1.0;" width="6" x="300" y="350.207"/><text fill="#000000" font-family="sans-serif" font-size="11" lengthAdjust="spacingAndGlyphs" textLength="23" x="312" y="355.5151">rgi()</text><rect fill="#F24D5C" height="6" style="stroke: #C82930; stroke-width: 1.0;" width="6" x="300" y="363.0117"/><text fill="#000000" font-family="sans-serif" font-size="11" lengthAdjust="spacingAndGlyphs" textLength="80" x="312" y="368.3198">parse_result()</text><rect fill="#FEFECE" filter="url(#f1)" height="112.0234" style="stroke: #A80036; stroke-width: 1.5;" width="149" x="747.5" y="27"/><ellipse cx="762.5" cy="43" fill="#ADD1B2" rx="11" ry="11" style="stroke: #A80036; stroke-width: 1.0;"/><path d="M764.8438,38.6719 L765.0156,38.75 C765.2344,38.4375 765.4375,38.3438 765.7344,38.3438 C766.0313,38.3438 766.3125,38.4844 766.4688,38.75 C766.5625,38.9063 766.5781,39.0313 766.5781,39.4688 L766.5781,40.8906 C766.5781,41.3125 766.5469,41.5 766.4375,41.6563 C766.2656,41.875 766,42.0156 765.7344,42.0156 C765.5156,42.0156 765.2813,41.9063 765.1406,41.7656 C765,41.6406 764.9688,41.5156 764.9063,41.1094 C764.8125,40.7031 764.6406,40.4844 764.1563,40.2031 C763.6875,39.9531 763.0781,39.7969 762.5,39.7969 C760.7656,39.7969 759.5156,41.1094 759.5156,42.8906 L759.5156,43.9844 C759.5156,45.6875 760.8125,46.7813 762.8594,46.7813 C763.625,46.7813 764.3125,46.6563 764.7344,46.3906 C764.9219,46.2969 764.9219,46.2969 765.375,45.8125 C765.5625,45.625 765.7656,45.5469 765.9844,45.5469 C766.4531,45.5469 766.8438,45.9375 766.8438,46.3906 C766.8438,46.7813 766.5156,47.2344 765.9375,47.6406 C765.1875,48.1875 764.0313,48.4844 762.8125,48.4844 C759.9219,48.4844 757.8125,46.5938 757.8125,44.0156 L757.8125,42.8906 C757.8125,40.1719 759.8125,38.0938 762.4375,38.0938 C763.3125,38.0938 763.9063,38.2344 764.8438,38.6719 Z "/><text fill="#000000" font-family="sans-serif" font-size="12" lengthAdjust="spacingAndGlyphs" textLength="117" x="776.5" y="47.1543">MetadataUploader</text><line style="stroke: #A80036; stroke-width: 1.5;" x1="748.5" x2="895.5" y1="59" y2="59"/><polygon fill="none" points="758.5,65.9023,762.5,69.9023,758.5,73.9023,754.5,69.9023" style="stroke: #B38D22; stroke-width: 1.0;"/><text fill="#000000" font-family="sans-serif" font-size="11" lengthAdjust="spacingAndGlyphs" textLength="104" x="767.5" y="73.2104">progress : Integer</text><polygon fill="none" points="758.5,78.707,762.5,82.707,758.5,86.707,754.5,82.707" style="stroke: #B38D22; stroke-width: 1.0;"/><text fill="#000000" font-family="sans-serif" font-size="11" lengthAdjust="spacingAndGlyphs" textLength="81" x="767.5" y="86.0151">error : Integer</text><polygon fill="none" points="758.5,91.5117,762.5,95.5117,758.5,99.5117,754.5,95.5117" style="stroke: #B38D22; stroke-width: 1.0;"/><text fill="#000000" font-family="sans-serif" font-size="11" lengthAdjust="spacingAndGlyphs" textLength="95" x="767.5" y="98.8198">filename : String</text><line style="stroke: #A80036; stroke-width: 1.5;" x1="748.5" x2="895.5" y1="105.4141" y2="105.4141"/><ellipse cx="758.5" cy="117.3164" fill="#84BE84" rx="3" ry="3" style="stroke: #038048; stroke-width: 1.0;"/><text fill="#000000" font-family="sans-serif" font-size="11" lengthAdjust="spacingAndGlyphs" textLength="98" x="767.5" y="119.6245">__init__(filename)</text><polygon fill="#FFFF44" points="758.5,125.1211,762.5,129.1211,758.5,133.1211,754.5,129.1211" style="stroke: #B38D22; stroke-width: 1.0;"/><text fill="#000000" font-family="sans-serif" font-size="11" lengthAdjust="spacingAndGlyphs" textLength="116" x="767.5" y="132.4292">error_logging(name)</text><rect fill="#FEFECE" filter="url(#f1)" height="112.0234" style="stroke: #A80036; stroke-width: 1.5;" width="178" x="495" y="275.5"/><ellipse cx="549.75" cy="291.5" fill="#ADD1B2" rx="11" ry="11" style="stroke: #A80036; stroke-width: 1.0;"/><path d="M552.0938,287.1719 L552.2656,287.25 C552.4844,286.9375 552.6875,286.8438 552.9844,286.8438 C553.2813,286.8438 553.5625,286.9844 553.7188,287.25 C553.8125,287.4063 553.8281,287.5313 553.8281,287.9688 L553.8281,289.3906 C553.8281,289.8125 553.7969,290 553.6875,290.1563 C553.5156,290.375 553.25,290.5156 552.9844,290.5156 C552.7656,290.5156 552.5313,290.4063 552.3906,290.2656 C552.25,290.1406 552.2188,290.0156 552.1563,289.6094 C552.0625,289.2031 551.8906,288.9844 551.4063,288.7031 C550.9375,288.4531 550.3281,288.2969 549.75,288.2969 C548.0156,288.2969 546.7656,289.6094 546.7656,291.3906 L546.7656,292.4844 C546.7656,294.1875 548.0625,295.2813 550.1094,295.2813 C550.875,295.2813 551.5625,295.1563 551.9844,294.8906 C552.1719,294.7969 552.1719,294.7969 552.625,294.3125 C552.8125,294.125 553.0156,294.0469 553.2344,294.0469 C553.7031,294.0469 554.0938,294.4375 554.0938,294.8906 C554.0938,295.2813 553.7656,295.7344 553.1875,296.1406 C552.4375,296.6875 551.2813,296.9844 550.0625,296.9844 C547.1719,296.9844 545.0625,295.0938 545.0625,292.5156 L545.0625,291.3906 C545.0625,288.6719 547.0625,286.5938 549.6875,286.5938 C550.5625,286.5938 551.1563,286.7344 552.0938,287.1719 Z "/><text fill="#000000" font-family="sans-serif" font-size="12" lengthAdjust="spacingAndGlyphs" textLength="60" x="570.25" y="295.6543">Metadata</text><line style="stroke: #A80036; stroke-width: 1.5;" x1="496" x2="672" y1="307.5" y2="307.5"/><polygon fill="none" points="506,314.4023,510,318.4023,506,322.4023,502,318.4023" style="stroke: #B38D22; stroke-width: 1.0;"/><text fill="#000000" font-family="sans-serif" font-size="11" lengthAdjust="spacingAndGlyphs" textLength="32" x="515" y="321.7104">name</text><polygon fill="none" points="506,327.207,510,331.207,506,335.207,502,331.207" style="stroke: #B38D22; stroke-width: 1.0;"/><text fill="#000000" font-family="sans-serif" font-size="11" lengthAdjust="spacingAndGlyphs" textLength="20" x="515" y="334.5151">dict</text><line style="stroke: #A80036; stroke-width: 1.5;" x1="496" x2="672" y1="341.1094" y2="341.1094"/><ellipse cx="506" cy="353.0117" fill="#84BE84" rx="3" ry="3" style="stroke: #038048; stroke-width: 1.0;"/><text fill="#000000" font-family="sans-serif" font-size="11" lengthAdjust="spacingAndGlyphs" textLength="81" x="515" y="355.3198">__init__(name)</text><ellipse cx="506" cy="365.8164" fill="#84BE84" rx="3" ry="3" style="stroke: #038048; stroke-width: 1.0;"/><text fill="#000000" font-family="sans-serif" font-size="11" lengthAdjust="spacingAndGlyphs" textLength="152" x="515" y="368.1245">add_parameter(key, value)</text><ellipse cx="506" cy="378.6211" fill="#84BE84" rx="3" ry="3" style="stroke: #038048; stroke-width: 1.0;"/><text fill="#000000" font-family="sans-serif" font-size="11" lengthAdjust="spacingAndGlyphs" textLength="82" x="515" y="380.9292">build_kwargs()</text><rect fill="#FEFECE" filter="url(#f1)" height="137.6328" style="stroke: #A80036; stroke-width: 1.5;" width="227" x="708.5" y="262.5"/><ellipse cx="735.2" cy="278.5" fill="#ADD1B2" rx="11" ry="11" style="stroke: #A80036; stroke-width: 1.0;"/><path d="M737.5438,274.1719 L737.7156,274.25 C737.9344,273.9375 738.1375,273.8438 738.4344,273.8438 C738.7313,273.8438 739.0125,273.9844 739.1688,274.25 C739.2625,274.4063 739.2781,274.5313 739.2781,274.9688 L739.2781,276.3906 C739.2781,276.8125 739.2469,277 739.1375,277.1563 C738.9656,277.375 738.7,277.5156 738.4344,277.5156 C738.2156,277.5156 737.9813,277.4063 737.8406,277.2656 C737.7,277.1406 737.6688,277.0156 737.6063,276.6094 C737.5125,276.2031 737.3406,275.9844 736.8563,275.7031 C736.3875,275.4531 735.7781,275.2969 735.2,275.2969 C733.4656,275.2969 732.2156,276.6094 732.2156,278.3906 L732.2156,279.4844 C732.2156,281.1875 733.5125,282.2813 735.5594,282.2813 C736.325,282.2813 737.0125,282.1563 737.4344,281.8906 C737.6219,281.7969 737.6219,281.7969 738.075,281.3125 C738.2625,281.125 738.4656,281.0469 738.6844,281.0469 C739.1531,281.0469 739.5438,281.4375 739.5438,281.8906 C739.5438,282.2813 739.2156,282.7344 738.6375,283.1406 C737.8875,283.6875 736.7313,283.9844 735.5125,283.9844 C732.6219,283.9844 730.5125,282.0938 730.5125,279.5156 L730.5125,278.3906 C730.5125,275.6719 732.5125,273.5938 735.1375,273.5938 C736.0125,273.5938 736.6063,273.7344 737.5438,274.1719 Z "/><text fill="#000000" font-family="sans-serif" font-size="12" lengthAdjust="spacingAndGlyphs" textLength="169" x="751.8" y="282.6543">GenomeMetadataUploader</text><line style="stroke: #A80036; stroke-width: 1.5;" x1="709.5" x2="934.5" y1="294.5" y2="294.5"/><rect fill="none" height="6" style="stroke: #C82930; stroke-width: 1.0;" width="6" x="716.5" y="303.4023"/><text fill="#000000" font-family="sans-serif" font-size="11" lengthAdjust="spacingAndGlyphs" textLength="54" x="728.5" y="308.7104">organism</text><line style="stroke: #A80036; stroke-width: 1.5;" x1="709.5" x2="934.5" y1="315.3047" y2="315.3047"/><ellipse cx="719.5" cy="327.207" fill="#84BE84" rx="3" ry="3" style="stroke: #038048; stroke-width: 1.0;"/><text fill="#000000" font-family="sans-serif" font-size="11" lengthAdjust="spacingAndGlyphs" textLength="160" x="728.5" y="329.5151">__init__(filename, organism)</text><ellipse cx="719.5" cy="340.0117" fill="#84BE84" rx="3" ry="3" style="stroke: #038048; stroke-width: 1.0;"/><text fill="#000000" font-family="sans-serif" font-size="11" lengthAdjust="spacingAndGlyphs" textLength="46" x="728.5" y="342.3198">upload()</text><rect fill="#F24D5C" height="6" style="stroke: #C82930; stroke-width: 1.0;" width="6" x="716.5" y="349.8164"/><text fill="#000000" font-family="sans-serif" font-size="11" lengthAdjust="spacingAndGlyphs" textLength="126" x="728.5" y="355.1245">parse_metadata(data)</text><rect fill="#F24D5C" height="6" style="stroke: #C82930; stroke-width: 1.0;" width="6" x="716.5" y="362.6211"/><text fill="#000000" font-family="sans-serif" font-size="11" lengthAdjust="spacingAndGlyphs" textLength="139" x="728.5" y="367.9292">add_to_graph(metadata)</text><rect fill="#F24D5C" height="6" style="stroke: #C82930; stroke-width: 1.0;" width="6" x="716.5" y="375.4258"/><text fill="#000000" font-family="sans-serif" font-size="11" lengthAdjust="spacingAndGlyphs" textLength="201" x="728.5" y="380.7339">create_pending_genome(metadata)</text><rect fill="#F24D5C" height="6" style="stroke: #C82930; stroke-width: 1.0;" width="6" x="716.5" y="388.2305"/><text fill="#000000" font-family="sans-serif" font-size="11" lengthAdjust="spacingAndGlyphs" textLength="132" x="728.5" y="393.5386">get_ncbi_ids(metadata)</text><rect fill="#FEFECE" filter="url(#f1)" height="163.2422" style="stroke: #A80036; stroke-width: 1.5;" width="182" x="971" y="250"/><ellipse cx="986" cy="266" fill="#ADD1B2" rx="11" ry="11" style="stroke: #A80036; stroke-width: 1.0;"/><path d="M988.3438,261.6719 L988.5156,261.75 C988.7344,261.4375 988.9375,261.3438 989.2344,261.3438 C989.5313,261.3438 989.8125,261.4844 989.9688,261.75 C990.0625,261.9063 990.0781,262.0313 990.0781,262.4688 L990.0781,263.8906 C990.0781,264.3125 990.0469,264.5 989.9375,264.6563 C989.7656,264.875 989.5,265.0156 989.2344,265.0156 C989.0156,265.0156 988.7813,264.9063 988.6406,264.7656 C988.5,264.6406 988.4688,264.5156 988.4063,264.1094 C988.3125,263.7031 988.1406,263.4844 987.6563,263.2031 C987.1875,262.9531 986.5781,262.7969 986,262.7969 C984.2656,262.7969 983.0156,264.1094 983.0156,265.8906 L983.0156,266.9844 C983.0156,268.6875 984.3125,269.7813 986.3594,269.7813 C987.125,269.7813 987.8125,269.6563 988.2344,269.3906 C988.4219,269.2969 988.4219,269.2969 988.875,268.8125 C989.0625,268.625 989.2656,268.5469 989.4844,268.5469 C989.9531,268.5469 990.3438,268.9375 990.3438,269.3906 C990.3438,269.7813 990.0156,270.2344 989.4375,270.6406 C988.6875,271.1875 987.5313,271.4844 986.3125,271.4844 C983.4219,271.4844 981.3125,269.5938 981.3125,267.0156 L981.3125,265.8906 C981.3125,263.1719 983.3125,261.0938 985.9375,261.0938 C986.8125,261.0938 987.4063,261.2344 988.3438,261.6719 Z "/><text fill="#000000" font-family="sans-serif" font-size="12" lengthAdjust="spacingAndGlyphs" textLength="150" x="1000" y="270.1543">GeneMetadataUploader</text><line style="stroke: #A80036; stroke-width: 1.5;" x1="972" x2="1152" y1="282" y2="282"/><rect fill="none" height="6" style="stroke: #C82930; stroke-width: 1.0;" width="6" x="979" y="290.9023"/><text fill="#000000" font-family="sans-serif" font-size="11" lengthAdjust="spacingAndGlyphs" textLength="23" x="991" y="296.2104">kind</text><rect fill="none" height="6" style="stroke: #C82930; stroke-width: 1.0;" width="6" x="979" y="303.707"/><text fill="#000000" font-family="sans-serif" font-size="11" lengthAdjust="spacingAndGlyphs" textLength="20" x="991" y="309.0151">dict</text><line style="stroke: #A80036; stroke-width: 1.5;" x1="972" x2="1152" y1="315.6094" y2="315.6094"/><ellipse cx="982" cy="327.5117" fill="#84BE84" rx="3" ry="3" style="stroke: #038048; stroke-width: 1.0;"/><text fill="#000000" font-family="sans-serif" font-size="11" lengthAdjust="spacingAndGlyphs" textLength="129" x="991" y="329.8198">__init__(filename, kind)</text><ellipse cx="982" cy="340.3164" fill="#84BE84" rx="3" ry="3" style="stroke: #038048; stroke-width: 1.0;"/><text fill="#000000" font-family="sans-serif" font-size="11" lengthAdjust="spacingAndGlyphs" textLength="87" x="991" y="342.6245">upload_genes()</text><rect fill="#F24D5C" height="6" style="stroke: #C82930; stroke-width: 1.0;" width="6" x="979" y="350.1211"/><text fill="#000000" font-family="sans-serif" font-size="11" lengthAdjust="spacingAndGlyphs" textLength="82" x="991" y="355.4292">parse_vf(data)</text><rect fill="#F24D5C" height="6" style="stroke: #C82930; stroke-width: 1.0;" width="6" x="979" y="362.9258"/><text fill="#000000" font-family="sans-serif" font-size="11" lengthAdjust="spacingAndGlyphs" textLength="95" x="991" y="368.2339">parse_amr(data)</text><rect fill="#F24D5C" height="6" style="stroke: #C82930; stroke-width: 1.0;" width="6" x="979" y="375.7305"/><text fill="#000000" font-family="sans-serif" font-size="11" lengthAdjust="spacingAndGlyphs" textLength="138" x="991" y="381.0386">remove_bad_chars(str_)</text><rect fill="#F24D5C" height="6" style="stroke: #C82930; stroke-width: 1.0;" width="6" x="979" y="388.5352"/><text fill="#000000" font-family="sans-serif" font-size="11" lengthAdjust="spacingAndGlyphs" textLength="139" x="991" y="393.8433">add_to_graph(metadata)</text><rect fill="#F24D5C" height="6" style="stroke: #C82930; stroke-width: 1.0;" width="6" x="979" y="401.3398"/><text fill="#000000" font-family="sans-serif" font-size="11" lengthAdjust="spacingAndGlyphs" textLength="132" x="991" y="406.6479">create_gene(metadata)</text><rect fill="#FEFECE" filter="url(#f1)" height="112.0234" style="stroke: #A80036; stroke-width: 1.5;" width="172" x="406" y="505"/><ellipse cx="433.6" cy="521" fill="#ADD1B2" rx="11" ry="11" style="stroke: #A80036; stroke-width: 1.0;"/><path d="M435.9438,516.6719 L436.1156,516.75 C436.3344,516.4375 436.5375,516.3438 436.8344,516.3438 C437.1313,516.3438 437.4125,516.4844 437.5688,516.75 C437.6625,516.9063 437.6781,517.0313 437.6781,517.4688 L437.6781,518.8906 C437.6781,519.3125 437.6469,519.5 437.5375,519.6563 C437.3656,519.875 437.1,520.0156 436.8344,520.0156 C436.6156,520.0156 436.3813,519.9063 436.2406,519.7656 C436.1,519.6406 436.0688,519.5156 436.0063,519.1094 C435.9125,518.7031 435.7406,518.4844 435.2563,518.2031 C434.7875,517.9531 434.1781,517.7969 433.6,517.7969 C431.8656,517.7969 430.6156,519.1094 430.6156,520.8906 L430.6156,521.9844 C430.6156,523.6875 431.9125,524.7813 433.9594,524.7813 C434.725,524.7813 435.4125,524.6563 435.8344,524.3906 C436.0219,524.2969 436.0219,524.2969 436.475,523.8125 C436.6625,523.625 436.8656,523.5469 437.0844,523.5469 C437.5531,523.5469 437.9438,523.9375 437.9438,524.3906 C437.9438,524.7813 437.6156,525.2344 437.0375,525.6406 C436.2875,526.1875 435.1313,526.4844 433.9125,526.4844 C431.0219,526.4844 428.9125,524.5938 428.9125,522.0156 L428.9125,520.8906 C428.9125,518.1719 430.9125,516.0938 433.5375,516.0938 C434.4125,516.0938 435.0063,516.2344 435.9438,516.6719 Z "/><text fill="#000000" font-family="sans-serif" font-size="12" lengthAdjust="spacingAndGlyphs" textLength="112" x="450.4" y="525.1543">GenomeMetadata</text><line style="stroke: #A80036; stroke-width: 1.5;" x1="407" x2="577" y1="537" y2="537"/><rect fill="none" height="6" style="stroke: #C82930; stroke-width: 1.0;" width="6" x="414" y="545.9023"/><text fill="#000000" font-family="sans-serif" font-size="11" lengthAdjust="spacingAndGlyphs" textLength="54" x="426" y="551.2104">organism</text><rect fill="none" height="6" style="stroke: #C82930; stroke-width: 1.0;" width="6" x="414" y="558.707"/><text fill="#000000" font-family="sans-serif" font-size="11" lengthAdjust="spacingAndGlyphs" textLength="20" x="426" y="564.0151">dict</text><line style="stroke: #A80036; stroke-width: 1.5;" x1="407" x2="577" y1="570.6094" y2="570.6094"/><ellipse cx="417" cy="582.5117" fill="#84BE84" rx="3" ry="3" style="stroke: #038048; stroke-width: 1.0;"/><text fill="#000000" font-family="sans-serif" font-size="11" lengthAdjust="spacingAndGlyphs" textLength="143" x="426" y="584.8198">__init__(name, organism)</text><ellipse cx="417" cy="595.3164" fill="#84BE84" rx="3" ry="3" style="stroke: #038048; stroke-width: 1.0;"/><text fill="#000000" font-family="sans-serif" font-size="11" lengthAdjust="spacingAndGlyphs" textLength="82" x="426" y="597.6245">build_kwargs()</text><rect fill="#F24D5C" height="6" style="stroke: #C82930; stroke-width: 1.0;" width="6" x="414" y="605.1211"/><text fill="#000000" font-family="sans-serif" font-size="11" lengthAdjust="spacingAndGlyphs" textLength="146" x="426" y="610.4292">get_serotypes(serotypes)</text><rect fill="#FEFECE" filter="url(#f1)" height="86.4141" style="stroke: #A80036; stroke-width: 1.5;" width="125" x="613.5" y="518"/><ellipse cx="628.5" cy="534" fill="#ADD1B2" rx="11" ry="11" style="stroke: #A80036; stroke-width: 1.0;"/><path d="M630.8438,529.6719 L631.0156,529.75 C631.2344,529.4375 631.4375,529.3438 631.7344,529.3438 C632.0313,529.3438 632.3125,529.4844 632.4688,529.75 C632.5625,529.9063 632.5781,530.0313 632.5781,530.4688 L632.5781,531.8906 C632.5781,532.3125 632.5469,532.5 632.4375,532.6563 C632.2656,532.875 632,533.0156 631.7344,533.0156 C631.5156,533.0156 631.2813,532.9063 631.1406,532.7656 C631,532.6406 630.9688,532.5156 630.9063,532.1094 C630.8125,531.7031 630.6406,531.4844 630.1563,531.2031 C629.6875,530.9531 629.0781,530.7969 628.5,530.7969 C626.7656,530.7969 625.5156,532.1094 625.5156,533.8906 L625.5156,534.9844 C625.5156,536.6875 626.8125,537.7813 628.8594,537.7813 C629.625,537.7813 630.3125,537.6563 630.7344,537.3906 C630.9219,537.2969 630.9219,537.2969 631.375,536.8125 C631.5625,536.625 631.7656,536.5469 631.9844,536.5469 C632.4531,536.5469 632.8438,536.9375 632.8438,537.3906 C632.8438,537.7813 632.5156,538.2344 631.9375,538.6406 C631.1875,539.1875 630.0313,539.4844 628.8125,539.4844 C625.9219,539.4844 623.8125,537.5938 623.8125,535.0156 L623.8125,533.8906 C623.8125,531.1719 625.8125,529.0938 628.4375,529.0938 C629.3125,529.0938 629.9063,529.2344 630.8438,529.6719 Z "/><text fill="#000000" font-family="sans-serif" font-size="12" lengthAdjust="spacingAndGlyphs" textLength="93" x="642.5" y="538.1543">GeneMetadata</text><line style="stroke: #A80036; stroke-width: 1.5;" x1="614.5" x2="737.5" y1="550" y2="550"/><rect fill="none" height="6" style="stroke: #C82930; stroke-width: 1.0;" width="6" x="621.5" y="558.9023"/><text fill="#000000" font-family="sans-serif" font-size="11" lengthAdjust="spacingAndGlyphs" textLength="20" x="633.5" y="564.2104">dict</text><line style="stroke: #A80036; stroke-width: 1.5;" x1="614.5" x2="737.5" y1="570.8047" y2="570.8047"/><ellipse cx="624.5" cy="582.707" fill="#84BE84" rx="3" ry="3" style="stroke: #038048; stroke-width: 1.0;"/><text fill="#000000" font-family="sans-serif" font-size="11" lengthAdjust="spacingAndGlyphs" textLength="81" x="633.5" y="585.0151">__init__(name)</text><ellipse cx="624.5" cy="595.5117" fill="#84BE84" rx="3" ry="3" style="stroke: #038048; stroke-width: 1.0;"/><text fill="#000000" font-family="sans-serif" font-size="11" lengthAdjust="spacingAndGlyphs" textLength="82" x="633.5" y="597.8198">build_kwargs()</text><rect fill="#FEFECE" filter="url(#f1)" height="150.4375" style="stroke: #A80036; stroke-width: 1.5;" width="274" x="1179" y="8"/><ellipse cx="1263.25" cy="24" fill="#ADD1B2" rx="11" ry="11" style="stroke: #A80036; stroke-width: 1.0;"/><path d="M1265.5938,19.6719 L1265.7656,19.75 C1265.9844,19.4375 1266.1875,19.3438 1266.4844,19.3438 C1266.7813,19.3438 1267.0625,19.4844 1267.2188,19.75 C1267.3125,19.9063 1267.3281,20.0313 1267.3281,20.4688 L1267.3281,21.8906 C1267.3281,22.3125 1267.2969,22.5 1267.1875,22.6563 C1267.0156,22.875 1266.75,23.0156 1266.4844,23.0156 C1266.2656,23.0156 1266.0313,22.9063 1265.8906,22.7656 C1265.75,22.6406 1265.7188,22.5156 1265.6563,22.1094 C1265.5625,21.7031 1265.3906,21.4844 1264.9063,21.2031 C1264.4375,20.9531 1263.8281,20.7969 1263.25,20.7969 C1261.5156,20.7969 1260.2656,22.1094 1260.2656,23.8906 L1260.2656,24.9844 C1260.2656,26.6875 1261.5625,27.7813 1263.6094,27.7813 C1264.375,27.7813 1265.0625,27.6563 1265.4844,27.3906 C1265.6719,27.2969 1265.6719,27.2969 1266.125,26.8125 C1266.3125,26.625 1266.5156,26.5469 1266.7344,26.5469 C1267.2031,26.5469 1267.5938,26.9375 1267.5938,27.3906 C1267.5938,27.7813 1267.2656,28.2344 1266.6875,28.6406 C1265.9375,29.1875 1264.7813,29.4844 1263.5625,29.4844 C1260.6719,29.4844 1258.5625,27.5938 1258.5625,25.0156 L1258.5625,23.8906 C1258.5625,21.1719 1260.5625,19.0938 1263.1875,19.0938 C1264.0625,19.0938 1264.6563,19.2344 1265.5938,19.6719 Z "/><text fill="#000000" font-family="sans-serif" font-size="12" lengthAdjust="spacingAndGlyphs" textLength="97" x="1283.75" y="28.1543">ContigUploader</text><line style="stroke: #A80036; stroke-width: 1.5;" x1="1180" x2="1452" y1="40" y2="40"/><line style="stroke: #A80036; stroke-width: 1.5;" x1="1180" x2="1452" y1="48" y2="48"/><ellipse cx="1190" cy="59.9023" fill="#84BE84" rx="3" ry="3" style="stroke: #038048; stroke-width: 1.0;"/><text fill="#000000" font-family="sans-serif" font-size="11" lengthAdjust="spacingAndGlyphs" textLength="235" x="1199" y="62.2104">upload_missing_contigs(genomes=None)</text><rect fill="#F24D5C" height="6" style="stroke: #C82930; stroke-width: 1.0;" width="6" x="1187" y="69.707"/><text fill="#000000" font-family="sans-serif" font-size="11" lengthAdjust="spacingAndGlyphs" textLength="213" x="1199" y="75.0151">load_contigs(handle, contigswrapper)</text><rect fill="#F24D5C" height="6" style="stroke: #C82930; stroke-width: 1.0;" width="6" x="1187" y="82.5117"/><text fill="#000000" font-family="sans-serif" font-size="11" lengthAdjust="spacingAndGlyphs" textLength="166" x="1199" y="87.8198">get_seqdata(contigswrapper)</text><rect fill="#F24D5C" height="6" style="stroke: #C82930; stroke-width: 1.0;" width="6" x="1187" y="95.3164"/><text fill="#000000" font-family="sans-serif" font-size="11" lengthAdjust="spacingAndGlyphs" textLength="166" x="1199" y="100.6245">upload(contigswrapper, func)</text><rect fill="#F24D5C" height="6" style="stroke: #C82930; stroke-width: 1.0;" width="6" x="1187" y="108.1211"/><text fill="#000000" font-family="sans-serif" font-size="11" lengthAdjust="spacingAndGlyphs" textLength="227" x="1199" y="113.4292">plasmid_rdf(contigswrapper, contig_rdf)</text><rect fill="#F24D5C" height="6" style="stroke: #C82930; stroke-width: 1.0;" width="6" x="1187" y="120.9258"/><text fill="#000000" font-family="sans-serif" font-size="11" lengthAdjust="spacingAndGlyphs" textLength="248" x="1199" y="126.2339">nonplasmid_rdf(contigswrapper, contig_rdf)</text><rect fill="#F24D5C" height="6" style="stroke: #C82930; stroke-width: 1.0;" width="6" x="1187" y="133.7305"/><text fill="#000000" font-family="sans-serif" font-size="11" lengthAdjust="spacingAndGlyphs" textLength="172" x="1199" y="139.0386">error_logging(contigswrapper)</text><rect fill="#F24D5C" height="6" style="stroke: #C82930; stroke-width: 1.0;" width="6" x="1187" y="146.5352"/><text fill="#000000" font-family="sans-serif" font-size="11" lengthAdjust="spacingAndGlyphs" textLength="150" x="1199" y="151.8433">download_file(id_, filetype)</text><rect fill="#FEFECE" filter="url(#f1)" height="227.2656" style="stroke: #A80036; stroke-width: 1.5;" width="256" x="1188" y="218"/><ellipse cx="1261.75" cy="234" fill="#ADD1B2" rx="11" ry="11" style="stroke: #A80036; stroke-width: 1.0;"/><path d="M1264.0938,229.6719 L1264.2656,229.75 C1264.4844,229.4375 1264.6875,229.3438 1264.9844,229.3438 C1265.2813,229.3438 1265.5625,229.4844 1265.7188,229.75 C1265.8125,229.9063 1265.8281,230.0313 1265.8281,230.4688 L1265.8281,231.8906 C1265.8281,232.3125 1265.7969,232.5 1265.6875,232.6563 C1265.5156,232.875 1265.25,233.0156 1264.9844,233.0156 C1264.7656,233.0156 1264.5313,232.9063 1264.3906,232.7656 C1264.25,232.6406 1264.2188,232.5156 1264.1563,232.1094 C1264.0625,231.7031 1263.8906,231.4844 1263.4063,231.2031 C1262.9375,230.9531 1262.3281,230.7969 1261.75,230.7969 C1260.0156,230.7969 1258.7656,232.1094 1258.7656,233.8906 L1258.7656,234.9844 C1258.7656,236.6875 1260.0625,237.7813 1262.1094,237.7813 C1262.875,237.7813 1263.5625,237.6563 1263.9844,237.3906 C1264.1719,237.2969 1264.1719,237.2969 1264.625,236.8125 C1264.8125,236.625 1265.0156,236.5469 1265.2344,236.5469 C1265.7031,236.5469 1266.0938,236.9375 1266.0938,237.3906 C1266.0938,237.7813 1265.7656,238.2344 1265.1875,238.6406 C1264.4375,239.1875 1263.2813,239.4844 1262.0625,239.4844 C1259.1719,239.4844 1257.0625,237.5938 1257.0625,235.0156 L1257.0625,233.8906 C1257.0625,231.1719 1259.0625,229.0938 1261.6875,229.0938 C1262.5625,229.0938 1263.1563,229.2344 1264.0938,229.6719 Z "/><text fill="#000000" font-family="sans-serif" font-size="12" lengthAdjust="spacingAndGlyphs" textLength="100" x="1282.25" y="238.1543">ContigsWrapper</text><line style="stroke: #A80036; stroke-width: 1.5;" x1="1189" x2="1443" y1="250" y2="250"/><rect fill="none" height="6" style="stroke: #C82930; stroke-width: 1.0;" width="6" x="1196" y="258.9023"/><text fill="#000000" font-family="sans-serif" font-size="11" lengthAdjust="spacingAndGlyphs" textLength="32" x="1208" y="264.2104">name</text><rect fill="none" height="6" style="stroke: #C82930; stroke-width: 1.0;" width="6" x="1196" y="271.707"/><text fill="#000000" font-family="sans-serif" font-size="11" lengthAdjust="spacingAndGlyphs" textLength="57" x="1208" y="277.0151">accession</text><rect fill="none" height="6" style="stroke: #C82930; stroke-width: 1.0;" width="6" x="1196" y="284.5117"/><text fill="#000000" font-family="sans-serif" font-size="11" lengthAdjust="spacingAndGlyphs" textLength="46" x="1208" y="289.8198">genome</text><ellipse cx="1199" cy="300.3164" fill="none" rx="3" ry="3" style="stroke: #038048; stroke-width: 1.0;"/><text fill="#000000" font-family="sans-serif" font-size="11" lengthAdjust="spacingAndGlyphs" textLength="67" x="1208" y="302.6245">hits = None</text><ellipse cx="1199" cy="313.1211" fill="none" rx="3" ry="3" style="stroke: #038048; stroke-width: 1.0;"/><text fill="#000000" font-family="sans-serif" font-size="11" lengthAdjust="spacingAndGlyphs" textLength="72" x="1208" y="315.4292">valid = None</text><ellipse cx="1199" cy="325.9258" fill="none" rx="3" ry="3" style="stroke: #038048; stroke-width: 1.0;"/><text fill="#000000" font-family="sans-serif" font-size="11" lengthAdjust="spacingAndGlyphs" textLength="103" x="1208" y="328.2339">basepairs = None</text><ellipse cx="1199" cy="338.7305" fill="none" rx="3" ry="3" style="stroke: #038048; stroke-width: 1.0;"/><text fill="#000000" font-family="sans-serif" font-size="11" lengthAdjust="spacingAndGlyphs" textLength="87" x="1208" y="341.0386">contigs = None</text><ellipse cx="1199" cy="351.5352" fill="none" rx="3" ry="3" style="stroke: #038048; stroke-width: 1.0;"/><text fill="#000000" font-family="sans-serif" font-size="11" lengthAdjust="spacingAndGlyphs" textLength="112" x="1208" y="353.8433">numcontigs = None</text><ellipse cx="1199" cy="364.3398" fill="none" rx="3" ry="3" style="stroke: #038048; stroke-width: 1.0;"/><text fill="#000000" font-family="sans-serif" font-size="11" lengthAdjust="spacingAndGlyphs" textLength="103" x="1208" y="366.6479">checksum = None</text><rect fill="none" height="6" style="stroke: #C82930; stroke-width: 1.0;" width="6" x="1196" y="374.1445"/><text fill="#000000" font-family="sans-serif" font-size="11" lengthAdjust="spacingAndGlyphs" textLength="20" x="1208" y="379.4526">dict</text><line style="stroke: #A80036; stroke-width: 1.5;" x1="1189" x2="1443" y1="386.0469" y2="386.0469"/><rect fill="#F24D5C" height="6" style="stroke: #C82930; stroke-width: 1.0;" width="6" x="1196" y="394.9492"/><text fill="#000000" font-family="sans-serif" font-size="11" lengthAdjust="spacingAndGlyphs" textLength="126" x="1208" y="400.2573">genome_name(contig)</text><ellipse cx="1199" cy="410.7539" fill="#84BE84" rx="3" ry="3" style="stroke: #038048; stroke-width: 1.0;"/><text fill="#000000" font-family="sans-serif" font-size="11" lengthAdjust="spacingAndGlyphs" textLength="117" x="1208" y="413.062">add_contigs(contigs)</text><ellipse cx="1199" cy="423.5586" fill="#84BE84" rx="3" ry="3" style="stroke: #038048; stroke-width: 1.0;"/><text fill="#000000" font-family="sans-serif" font-size="11" lengthAdjust="spacingAndGlyphs" textLength="122" x="1208" y="425.8667">generate_checksum()</text><ellipse cx="1199" cy="436.3633" fill="#84BE84" rx="3" ry="3" style="stroke: #038048; stroke-width: 1.0;"/><text fill="#000000" font-family="sans-serif" font-size="11" lengthAdjust="spacingAndGlyphs" textLength="230" x="1208" y="438.6714">generate_kwargs(accession_name, seq)</text><rect fill="#FEFECE" filter="url(#f1)" height="86.4141" style="stroke: #A80036; stroke-width: 1.5;" width="158" x="1488" y="40"/><ellipse cx="1503" cy="56" fill="#ADD1B2" rx="11" ry="11" style="stroke: #A80036; stroke-width: 1.0;"/><path d="M1505.3438,51.6719 L1505.5156,51.75 C1505.7344,51.4375 1505.9375,51.3438 1506.2344,51.3438 C1506.5313,51.3438 1506.8125,51.4844 1506.9688,51.75 C1507.0625,51.9063 1507.0781,52.0313 1507.0781,52.4688 L1507.0781,53.8906 C1507.0781,54.3125 1507.0469,54.5 1506.9375,54.6563 C1506.7656,54.875 1506.5,55.0156 1506.2344,55.0156 C1506.0156,55.0156 1505.7813,54.9063 1505.6406,54.7656 C1505.5,54.6406 1505.4688,54.5156 1505.4063,54.1094 C1505.3125,53.7031 1505.1406,53.4844 1504.6563,53.2031 C1504.1875,52.9531 1503.5781,52.7969 1503,52.7969 C1501.2656,52.7969 1500.0156,54.1094 1500.0156,55.8906 L1500.0156,56.9844 C1500.0156,58.6875 1501.3125,59.7813 1503.3594,59.7813 C1504.125,59.7813 1504.8125,59.6563 1505.2344,59.3906 C1505.4219,59.2969 1505.4219,59.2969 1505.875,58.8125 C1506.0625,58.625 1506.2656,58.5469 1506.4844,58.5469 C1506.9531,58.5469 1507.3438,58.9375 1507.3438,59.3906 C1507.3438,59.7813 1507.0156,60.2344 1506.4375,60.6406 C1505.6875,61.1875 1504.5313,61.4844 1503.3125,61.4844 C1500.4219,61.4844 1498.3125,59.5938 1498.3125,57.0156 L1498.3125,55.8906 C1498.3125,53.1719 1500.3125,51.0938 1502.9375,51.0938 C1503.8125,51.0938 1504.4063,51.2344 1505.3438,51.6719 Z "/><text fill="#000000" font-family="sans-serif" font-size="12" lengthAdjust="spacingAndGlyphs" textLength="126" x="1517" y="60.1543">BlazegraphUploader</text><line style="stroke: #A80036; stroke-width: 1.5;" x1="1489" x2="1645" y1="72" y2="72"/><line style="stroke: #A80036; stroke-width: 1.5;" x1="1489" x2="1645" y1="80" y2="80"/><ellipse cx="1499" cy="91.9023" fill="#84BE84" rx="3" ry="3" style="stroke: #038048; stroke-width: 1.0;"/><text fill="#000000" font-family="sans-serif" font-size="11" lengthAdjust="spacingAndGlyphs" textLength="49" x="1508" y="94.2104">__init__()</text><ellipse cx="1499" cy="104.707" fill="#84BE84" rx="3" ry="3" style="stroke: #038048; stroke-width: 1.0;"/><text fill="#000000" font-family="sans-serif" font-size="11" lengthAdjust="spacingAndGlyphs" textLength="130" x="1508" y="107.0151">upload_all_ontologies()</text><ellipse cx="1499" cy="117.5117" fill="#84BE84" rx="3" ry="3" style="stroke: #038048; stroke-width: 1.0;"/><text fill="#000000" font-family="sans-serif" font-size="11" lengthAdjust="spacingAndGlyphs" textLength="102" x="1508" y="119.8198">upload_data(data)</text><path d="M237.007,157.703 C223.455,188.924 207.694,225.233 194.127,256.487 " fill="none" style="stroke: #A80036; stroke-width: 1.0;"/><polygon fill="none" points="230.735,154.571,245.12,139.013,243.578,160.146,230.735,154.571" style="stroke: #A80036; stroke-width: 1.0;"/><path d="M300.928,157.553 C319.455,200.235 342.128,252.468 357.679,288.293 " fill="none" style="stroke: #A80036; stroke-width: 1.0;"/><polygon fill="none" points="294.422,160.146,292.88,139.013,307.265,154.571,294.422,160.146" style="stroke: #A80036; stroke-width: 1.0;"/><path d="M767.653,139.25 C744.025,163.359 716.067,192.004 691,218 C676.126,233.426 660.17,250.12 645.24,265.807 " fill="none" style="stroke: #A80036; stroke-width: 1.0;"/><polygon fill="#A80036" points="636.096,275.424,643.1293,273.8328,644.3656,266.7284,637.3323,268.3197,636.096,275.424" style="stroke: #A80036; stroke-width: 1.0;"/><path d="M822,159.208 C822,192.105 822,230.416 822,262.454 " fill="none" style="stroke: #A80036; stroke-width: 1.0;"/><polygon fill="none" points="815,159.013,822,139.013,829,159.013,815,159.013" style="stroke: #A80036; stroke-width: 1.0;"/><path d="M889.944,153.381 C910.246,174.145 932.542,196.98 953,218 C963.053,228.329 973.615,239.203 984.045,249.954 " fill="none" style="stroke: #A80036; stroke-width: 1.0;"/><polygon fill="none" points="884.893,158.228,875.912,139.036,894.901,148.439,884.893,158.228" style="stroke: #A80036; stroke-width: 1.0;"/><path d="M554.175,406.253 C541.24,438.239 526.35,475.059 514.384,504.647 " fill="none" style="stroke: #A80036; stroke-width: 1.0;"/><polygon fill="none" points="547.742,403.488,561.729,387.571,560.721,408.737,547.742,403.488" style="stroke: #A80036; stroke-width: 1.0;"/><path d="M613.812,406.219 C628.765,443.196 646.334,486.641 658.977,517.9041 " fill="none" style="stroke: #A80036; stroke-width: 1.0;"/><polygon fill="none" points="607.279,408.737,606.271,387.571,620.258,403.488,607.279,408.737" style="stroke: #A80036; stroke-width: 1.0;"/><path d="M1316,158.292 C1316,172.911 1316,188.627 1316,204.406 " fill="none" style="stroke: #A80036; stroke-width: 1.0;"/><polygon fill="#A80036" points="1316,217.651,1320,211.651,1316,205.651,1312,211.651,1316,217.651" style="stroke: #A80036; stroke-width: 1.0;"/></g></svg>