<?xml version="1.0" encoding="UTF-8" standalone="no"?>
<svg xmlns:rdf="http://www.w3.org/1999/02/22-rdf-syntax-ns#" xmlns="http://www.w3.org/2000/svg" version="1.1" xmlns:cc="http://creativecommons.org/ns#" xmlns:dc="http://purl.org/dc/elements/1.1/" viewBox="0 0 77.663658 81.682114" preserveAspectRatio="xMidYMid meet" height=100%">
 <defs>
  <clipPath id="a" clipPathUnits="userSpaceOnUse">
   <rect stroke-linejoin="round" height="81.767" width="77.664" stroke="#000" stroke-linecap="round" y="1.7014" x="18.515" stroke-width="1.5" fill="#a4c836"/>
  </clipPath>
 </defs>
 <g clip-path="url(#a)" transform="translate(-18.515 -1.7863)">
  <path fill="#6e6564" d="m37 108.07v-6.9267l1.75-0.45732 1.75-0.45-2.25-0.11-2.25-0.12v-1-1h2.5 2.5v-0.76287c0-0.41958-1.0125-1.2071-2.25-1.75l-2.25-0.987v-2-2l3.75-0.31036 3.75-0.31037v0.99394 0.99394l-2.75 0.3735-2.75 0.3735 2.75 1.1682 2.75 1.1682v2.0561 2.0561l-1.6309 0.62584-1.6309 0.62584 3.3809 1.0928 3.381 1.09 0.32676 2.305 0.32676 2.305-1.1499 1.3856-1.1499 1.3856-2.6768 0.30936-2.677 0.31-0.32 2.25-0.319 2.25h-1.431-1.43v-6.93zm6.823-2.4 0.324-1.67h-2.074-2.073v1.3333c0 3.0628 3.2392 3.3456 3.8233 0.3338zm7.177 2.33v-7h2 2v2.5 2.5h2.5 2.5v-2.5-2.5h2 2v7 7h-2-2v-3-3h-2.5-2.5v3 3h-2-2v-7zm21 3.947v-3.0531l-2.5204-3.6969-2.5204-3.697 1.6867-0.35534 1.6867-0.35534 1.7498 2.3198 1.7498 2.3198 1.8837-2.3263 1.8837-2.3263 1.7206 0.36188 1.7206 0.36188-2.5204 3.697-2.524 3.71v3.0531 3.053h-2-2v-3.053zm-26.286-12.569-0.714-0.714v-4.334-4.333h1.5 1.5v4 4h1.5 1.5v-4-4h1.5548 1.5548l-0.30479 4.75-0.305 4.75-3.536 0.298-3.535 0.302-0.715-0.719zm10.286-4.381v-5h3.3 3.3l1.2 1.2 1.2 1.2v-1.2438-1.2438l7.25 0.29381 7.25 0.29381 0.1398 3c0.07689 1.65 0.46253 3.7875 0.85699 4.75l0.71719 1.75h-1.5-1.5l-0.5756-1.5c-0.317-0.825-1.04-1.5-1.608-1.5h-1.031v1.5 1.5h-5-5v-3.155-3.155l-1.8287 1.655c-1.006 0.91-2.356 1.655-3 1.655h-1.171v1.5 1.5h-1.5-1.5v-5zm16 2v-1h-2-2v1 1h2 2v-1zm-11-4c0-0.55-0.45-1-1-1s-1 0.45-1 1 0.45 1 1 1 1-0.45 1-1zm11 0v-1h-2-2v1 1h2 2v-1zm5 0c0-0.55-0.45-1-1-1s-1 0.45-1 1 0.45 1 1 1 1-0.45 1-1zm-28.976-12.603-5.476-1.472-4.439-2.601-4.44-2.602-4.41-4.41-4.41-4.411-3.175-6.7-3.174-6.701v-9.5-9.5l3.1931-6.7408 3.1931-6.7408 4.8196-4.8196 4.8196-4.8196 5.522-2.7017 5.522-2.7001 6.215-1.0948 6.215-1.0948 5.9389 1.0461 5.9389 1.0461 5.5181 2.7019 5.5181 2.7019 4.5982 4.5982 4.5982 4.5982 3.1948 6.4948 3.195 6.495-0.004 11.016-0.003 11.016-2.8306 5.3828-2.8306 5.3828-4.4289 4.7348-4.4289 4.7348-5.737 3.0454-5.737 3.045-5.934 1.087c-3.2635 0.59782-7.0885 1.0573-8.5 1.0211s-5.0304-0.72797-8.0421-1.5373zm25.312-5.1735 6.6133-3.0947 4.3955-4.5226 4.3955-4.5226 2.1448-4.563c1.1797-2.5096 2.6427-6.8842 3.2511-9.7213l1.1063-5.1583-0.55534-5.3808-0.55534-5.3808-2.9745-6.1897c-1.635-3.404-4.03-7.454-5.32-9l-2.346-2.811-2.933 3.061-2.932 3.061h2.687 2.687v14 14h1.5 1.5l-0.07895 1.75-0.079 1.75-0.504-1.25-0.505-1.25h-2.833-2.833l-0.505 1.25-0.504 1.25-0.079-1.75-0.079-1.75h2 2v-13-13h-3.2231-3.2231l-6.2769 6.2211c-3.452 3.422-6.277 6.572-6.277 7v0.779h3.5 3.5v7.5936 7.5936l2 0.52301 2 0.52301v7.8834 7.884h-1-1v-7.5664-7.5664l-2.75 0.31642-2.75 0.317-0.556 10-0.557 10-0.193-10.633-0.194-10.634 2-0.523 2-0.523v-7.093-7.094h-4.288-4.288l-3.762 4.5-3.762 4.5h1.55 1.55v5.5 5.5h2 2l-0.17659 7.75-0.17659 7.75-0.57341-7-0.573-7-2.698-0.311-2.699-0.312-0.362 5.812-0.363 5.811-0.189-6.25-0.189-6.25h1.5 1.5v-5-5h-1.6855-1.6855l-2.3145 2.1743-2.314 2.175v7.825 7.826h1.5 1.5l-0.079 1.75-0.079 1.75-0.504-1.25-0.505-1.25h-2.216-2.217l-1.2 1.2-1.2 1.2v-1.7-1.7h2 2v-7.2414-7.2414l-7.1764 7.1764-7.1764 7.1764 1.3467 1.6226c2.0669 2.4904 9.8459 6.761 14.935 8.1993l4.571 1.293 7.1115-0.3327 7.1115-0.3327 6.6133-3.0947zm-37.544-13.512 4.208-4.288v-2.012-2.012l-1.2-1.2c-0.66-0.66-1.88-1.2-2.712-1.2h-1.512l-4.288 4.208-4.288 4.208v1.1489 1.1489l4.9888-4.9888 4.9888-4.9888 1.5112 1.2541c0.831 0.691 1.511 1.743 1.511 2.34 0 0.59697-1.6663 2.7919-3.7029 4.8776l-3.703 3.792h-1.856-1.856l0.618 1c0.33992 0.55 1.1728 1 1.8508 1h1.2328l4.2082-4.2879zm-3-11l4.208-4.288v-1.6407-1.6407l-1.5714-1.5714c-0.865-0.864-1.988-1.571-2.498-1.571-1.2203 0-8.786 6.8596-9.9363 9.0091l-0.89999 1.6816 1.5091 2.1546 1.509 2.155h1.7351 1.7351l4.2082-4.2879zm-7.592 2.088c-0.66-0.66-1.2-1.694-1.2-2.297 0-0.60338 1.7065-2.7634 3.7922-4.8l3.792-3.703h1.6008 1.6008l0.64295 1.6755 0.64295 1.6755-4.2442 4.3245c-2.334 2.378-4.51 4.324-4.835 4.324-0.326 0-1.132-0.54-1.792-1.2zm24.184-4.803 3.616-4.003v-1.797-1.797l-1.2-1.2-1.2-1.2h-1.954-1.953l-3.847 4.166-3.846 4.167v2.1669c0 1.1918 0.3 2.4669 0.66667 2.8336 0.366 0.366 1.889 0.666 3.383 0.666h2.717l3.6164-4.0029zm-8.8892 1.9939-0.62356-1.0089 0.57195-1.8021c0.31457-0.99113 2.1573-3.3387 4.095-5.2167l3.523-3.4147 1.66 1.0471c0.91302 0.57592 1.8264 1.5462 2.0297 2.1562l0.369 1.11-3.676 4.07-3.677 4.069h-1.8246-1.8246l-0.62356-1.0089zm-10.558-10.538 4.191-4.548-0.314-1.583-0.314-1.583-2.171-1.439-2.17-1.438-4.08 3.685-4.079 3.686v1.0866 1.0866l3.9295-3.837 3.9295-3.837 1.5705 0.60268 1.57 0.602v1.8284 1.8284l-3.9295 3.837-3.9295 3.837-1.57-0.603-1.571-0.602v0.968 0.969h2.3726 2.3726l4.1916-4.5473zm15.794-2.032 4.387-4.58-0.309-2.068-0.309-2.069-1.759-1.102-1.758-1.102-2.643 1.5c-1.4537 0.825-3.9886 3.1691-5.6332 5.2091l-2.9901 3.7091 1.6648 2.5409 1.664 2.541h1.6484 1.6484l4.3877-4.5793zm-8.0639 1.9126c-0.367-0.367-0.667-1.44-0.667-2.384v-1.717l4.0695-3.6765 4.0695-3.6765 1.1805 0.3885 1.1805 0.3885 0.33463 2.2867 0.33463 2.2867-3.2808 3.3849-3.281 3.385h-1.638c-0.90044 0-1.9372-0.3-2.3038-0.66667zm24.125-4.622 4.208-4.288v-1.6407-1.6407l-1.5714-1.5714c-0.865-0.864-2-1.571-2.523-1.571s-2.9659 1.8573-5.4286 4.1274l-4.477 4.128v2.1726 2.1726l1.2 1.2c0.66 0.66 1.9163 1.2 2.7918 1.2h1.5918l4.2082-4.2879zm-7.592 2.088c-0.66-0.66-1.2-1.694-1.2-2.297 0-0.60338 1.7065-2.7634 3.7922-4.8l3.792-3.703h1.6008 1.6008l0.64295 1.6755 0.64295 1.6755-4.2442 4.3245c-2.334 2.378-4.51 4.324-4.835 4.324-0.326 0-1.132-0.54-1.792-1.2zm-24.2-13.87v-1.8124l-1.1071-0.68425-1.1071-0.68425 0.65633 2.0679 0.65633 2.0679-3.5492 3.9285c-1.9521 2.1607-3.5307 4.324-3.5082 4.8073 0.02256 0.48334 1.8226-1.0916 4-3.4998l3.959-4.379v-1.813zm12.363 3.1124c2.55-2.726 4.637-5.356 4.637-5.844s-0.868-1.673-1.928-2.633l-1.929-1.745-1.994 0.633-1.993 0.632-3.578 3.961-3.578 3.96v1.4257c0 1.778 2.708 4.568 4.435 4.568h1.2917l4.6368-4.9572zm-8.7334 1.4348-0.58418-1.5224 3.5936-3.9776l3.593-3.977h1.915 1.915l0.56811 1.4805 0.56811 1.4805-3.1835 4.0195-3.184 4.02h-2.309-2.309l-0.584-1.522zm25.243-3.955c2.27-2.462 4.127-4.742 4.127-5.065 0-0.324-0.466-1.459-1.035-2.523l-1.035-1.934h-2.338-2.337l-4.128 4.478-4.127 4.477v1.323c0 0.727 0.54 1.862 1.2 2.522l1.2 1.2h2.1726 2.1726l4.1274-4.4777zm-8.206 2.811c-0.367-0.366-0.667-1.4-0.667-2.297v-1.6304l3.9295-3.837 3.9295-3.837 1.5705 0.60268 1.57 0.603v1.8284 1.8284l-3.7922 3.7029c-2.086 2.037-4.261 3.703-4.833 3.703-0.573 0-1.342-0.3-1.708-0.667zm23.343-3.961 4.016-3.628 0.599-2.385 0.598-2.385-1.234-1.487-1.234-1.487h-2.0095-2.0095l-3.3748 3.5784c-1.8562 1.9681-3.8004 4.3735-4.3205 5.3454l-0.94568 1.767 1.5091 2.1546 1.51 2.155h1.4404 1.4404l4.016-3.6282zm-7.5158 0.61928-0.62356-1.0089 0.61239-1.9295 0.61239-1.9295 3.4515-3.0305 3.4515-3.0305 1.4233 0.54619c0.78284 0.3004 1.6729 1.1965 1.9779 1.9912l0.55452 1.445-3.5936 3.9776-3.593 3.978h-1.8246-1.8246l-0.62356-1.0089zm-27.702-7.279 4.208-4.288-0.079-1.9619-0.079-1.9621-0.541 1.5c-0.2975 0.825-2.3811 3.4129-4.6302 5.751l-4.089 4.251-1.916-0.608-1.916-0.608 0.684 1.107 0.684 1.107h1.7328 1.7328l4.2082-4.2879zm15.73-1.839 4.478-4.1277-0.116-2.6227-0.116-2.6226l-0.47762 2-0.47762 2-3.6093 3.75-3.6093 3.75h-1.1746c-0.64603 0-1.7501-0.69344-2.4535-1.541l-1.279-1.541 3.157-3.2566c1.736-1.7911 3.156-3.661 3.156-4.1552v-0.8985l-3.5 3.3923-3.5 3.392v1.7471 1.7471l2.2225 1.5567c1.223 0.856 2.358 1.557 2.523 1.557 0.16491 0 2.3148-1.8573 4.7775-4.1274zm15.401-1.462c1.692-1.424 3.077-3.0454 3.077-3.6035v-1.0147l-3.535 3.1032c-1.944 1.707-3.712 3.104-3.928 3.104-0.217 0-1.12-0.726-2.007-1.613l-1.612-1.612 1.564-2.3876c0.86-1.3131 1.266-2.3874 0.901-2.3874-1.078 0-3.317 3.3736-3.351 5.05-0.018 0.852 0.508 2.09 1.168 2.75l1.2 1.2h1.7233 1.7233l3.0767-2.5889z"/>
  <path fill="#cb2a2a" d="m37 108v-7h3.5657 3.5657l1.9343 1.0352 1.9343 1.0352v2.2648 2.2648l-1.2 1.2-1.2 1.2h-2.8-2.8v2.5 2.5h-1.5-1.5v-7zm6.812-2.26 0.335-1.74h-2.074-2.073v2.0733 2.0733l1.7385-0.33481 1.7385-0.33481 0.33481-1.7385zm7.3925 2.5218 0.29569-6.7397 1.6778-0.31977 1.6778-0.31977 0.32216 2.8094l0.322 2.81 2.25 0.31955 2.25 0.31955v-3.0696-3.0696h2 2v7 7h-2-2v-3-3h-2.5-2.5v3 3h-2.0457-2.0457l0.29569-6.7397zm20.796 3.69v-3.0531l-2.5204-3.6969-2.5204-3.697 1.6867-0.35534 1.6867-0.35534 1.8732 2.3553 1.8732 2.3553 1.5826-2.25 1.5826-2.25h1.9141 1.9141l-2.5361 3.7321-2.536 3.72v3.2679 3.2679h-2-2v-3.053zm-35-12.875v-1.051l2.14 0.238 2.14 0.238 0.403-1.131 0.404-1.13-2.608-0.655-2.609-0.655 0.315-2.214 0.315-2.215 2.75-0.316 2.75-0.317v1.1254 1.1254l-0.99208-0.61314-0.99208-0.61314-1.7579 1.0028-1.758 1.003 3.3043 1.1681 3.3043 1.1681-0.30425 2.1333-0.304 2.134-3.25 0.313-3.25 0.317v-1.055zm8.975-1.64c-0.536-1.411-0.975-3.409-0.975-4.441v-1.876l1-0.618 1-0.61803v3.359 3.359l1.1762 1.1762 1.1762 1.1762 1.3238-1.0987 1.324-1.099v-3.436-3.437l1 0.618 1 0.61803v2.5067c0 1.3787-0.46583 3.3771-1.0352 4.441l-1.035 1.934h-2.4896-2.4896l-0.97525-2.5651zm10.025-2.435v-5h2.8776 2.8776l1.2343 1.4873 1.2343 1.4873-0.581 1.512-0.58 1.513h-2.532-2.531v2 2h-1-1v-5zm5.75-1.75 0.417-1.25h-2.084-2.083v1.5733 1.5733l1.6671-0.32332 1.6671-0.32332 0.4162-1.25zm3.25 1.75v-5h3 3v1 1h-2-2v1 1h2 2v1 1h-2-2v1 1h2c1.1 0 2.3375-0.1125 2.75-0.25l0.75-0.25 0.05924-3.5 0.05924-3.5 2.5264-0.30056 2.5264-0.30056 1.322 1.5929 1.322 1.5929-1.0924 1.0924-1.0924 1.0924 1.5498 2.3652 1.55 2.365h-1.08-1.08l-1.07-2-1.0704-2h-1.0584-1.0584l-0.52301 2-0.52301 2h-4.3834-4.383v-5zm12.771-1.812 0.396-1.188h-2.084-2.083v0.83333c0 1.2619 1.2512 2.2496 2.375 1.875 0.55-0.18333 1.1781-0.86771 1.3958-1.5208zm-31.862-14.026-5.591-1.847-4.504-3.099c-2.477-1.704-5.991-4.792-7.808-6.862l-3.304-3.763-2.601-5.545-2.601-5.546v-10.516-10.516l3.2413-6.5894 3.2413-6.5894 5.0407-4.7149 5.041-4.7149 5.718-2.6203 5.718-2.6204 8.271-0.4362 8.27-0.4362 6.23 2.2517 6.229 2.2516 4.6279 3.3704 4.6279 3.3704 2.6841 3.519c1.4762 1.9354 3.8937 6.0999 5.3721 9.2544l2.688 5.736v9.5 9.5l-3.1744 6.7007-3.1744 6.7007-4.6249 4.6249-4.6249 4.6249-6.6553 3.1144-6.6553 3.1144-8.0454 0.31477-8.0454 0.31477-5.5911-1.8474zm19.529-0.68518 3.9382-0.63824 5.5618-2.8339l5.562-2.834 4.184-4.336 4.184-4.335 2.816-5.5 2.816-5.5v-10.5-10.5l-2.819-5.5-2.82-5.5-3.18-3.373c-1.75-1.855-5.369-4.798-8.042-6.539l-4.861-3.1656-3.294 3.2936-3.294 3.294-1.595-0.612-1.595-0.612v-1.67c0-0.919 0.701-2.6711 1.557-3.8935l1.556-2.2225h-2.975c-1.636 0-3.653-0.2605-4.483-0.579l-1.509-0.579 0.562 2.1487 0.562 2.1487-3.838 3.9306-3.838 3.93h-1.175c-0.64603 0-1.7515-0.69505-2.4565-1.5446l-1.281-1.544 3.863-3.9556 3.862-3.9554h-1.088c-0.599 0-3.377 0.7391-6.174 1.6425l-5.0858 1.6425 0.52836 0.85491 0.52836 0.85491-4.4523 4.7123-4.4523 4.7123-1.6364-1.3581-1.6364-1.3581-1.3861 1.8955-1.3861 1.8956 0.98422 1.1859 0.98422 1.1859-1.5596 2.3802c-0.85777 1.3091-2.6879 3.3613-4.0669 4.5603l-2.507 2.181v1.9248c0 1.0587-0.29033 2.7491-0.64518 3.7566l-0.645 1.831 4.571-4.385 4.571-4.386 1.574 0.604 1.574 0.604v1.7392 1.7392l-3.7029 3.7922-3.703 3.792h-1.247-1.248l-1.048-1.75-1.047-1.75 0.598 4.5c0.87948 6.6174 2.3736 12.035 4.411 15.994l1.804 3.506 4.6562 4.8348 4.6562 4.8348 5.5424 2.5374 5.5424 2.5374 5.1431 0.72782c2.829 0.401 6.043 0.597 7.143 0.436 1.1-0.16085 3.7722-0.57966 5.9382-0.93069zm-37.808-15.999-0.584-1.523 3.593-3.977 3.594-3.978h1.915 1.915l0.60268 1.5705 0.60268 1.5705-3.837 3.9295-3.837 3.93h-1.69-1.69l-0.584-1.522zm-2.43-9.678c-0.66-0.66-1.2-1.694-1.2-2.297 0-0.60338 1.7065-2.7634 3.7922-4.8l3.792-3.703h1.6008 1.6008l0.59088 1.5398 0.59088 1.5398-4.1113 4.4602c-2.261 2.453-4.413 4.46-4.783 4.46s-1.213-0.54-1.873-1.2zm15.837-3.2551-1.2076-1.4551 2.7404-3.5928c1.5072-1.976 3.5993-4.0525 4.6491-4.6143l1.9087-1.0215 1.4361 1.1918c0.791 0.656 1.437 1.585 1.437 2.067 0 0.48107-1.6274 2.676-3.6164 4.8776l-3.617 4.002h-1.261c-0.69366 0-1.8046-0.65478-2.4688-1.4551zm-3.5428-10.554-0.62356-1.0089 0.61239-1.9295 0.61239-1.9295 3.4515-3.0305 3.4515-3.0305 1.5007 0.57586 1.5007 0.57586v1.8582 1.8582l-3.1036 3.5348-3.103 3.535h-1.838-1.837l-0.624-1.009zm16.706-2.191c-0.66-0.66-1.2-1.694-1.2-2.297 0-0.60338 1.7065-2.7634 3.7922-4.8l3.792-3.703h1.6008 1.6008l0.64295 1.6755 0.64295 1.6755-4.2442 4.3245c-2.334 2.378-4.51 4.324-4.835 4.324-0.326 0-1.132-0.54-1.792-1.2zm-20.2-10.104v-2.304l3.298-3.196 3.297-3.196h1.7338 1.7338l0.60268 1.5705 0.60268 1.5705-3.837 3.9295-3.837 3.93h-1.797-1.797v-2.304zm16.667-0.363c-0.367-0.366-0.667-1.4-0.667-2.297v-1.6304l3.9295-3.837 3.9295-3.837 1.5705 0.60268 1.57 0.603v1.8284 1.8284l-3.7922 3.7029c-2.086 2.037-4.261 3.703-4.833 3.703-0.573 0-1.342-0.3-1.708-0.667zm15.709-3.7978-0.56198-1.4645 2.1487-3.0175c1.1818-1.6596 3.0754-3.6667 4.2082-4.4601l2.0595-1.4425 1.3852 0.53155 1.384 0.533v2.1968 2.1968l-3.2976 3.1962-3.297 3.196h-1.734-1.734l-0.562-1.465z"/>
  <path fill="#0e0d0d" d="m37 99.075v-1.0516l2.1398 0.23821 2.1398 0.23821 0.40379-1.1307 0.40379-1.1307-2.6085-0.65468-2.6085-0.65468 0.31492-2.2147 0.313-2.212 2.75-0.316 2.75-0.317v1.1254 1.1254l-0.99208-0.61314-0.99208-0.61314-1.7579 1.0028-1.758 1.003 3.3043 1.1681 3.3043 1.1681-0.30425 2.1333-0.304 2.134-3.25 0.313-3.25 0.317v-1.055zm8.975-1.64c-0.536-1.411-0.975-3.409-0.975-4.441v-1.876l1-0.618 1-0.61803v3.359 3.359l1.1762 1.1762 1.1762 1.1762 1.3238-1.0987 1.324-1.099v-3.436-3.437l1 0.618 1 0.61803v2.5067c0 1.3787-0.46583 3.3771-1.0352 4.441l-1.035 1.934h-2.4896-2.4896l-0.97525-2.5651zm10.025-2.435v-5h2.8776 2.8776l1.2343 1.4873 1.2343 1.4873-0.581 1.512-0.58 1.513h-2.532-2.531v2 2h-1-1v-5zm5.75-1.75 0.417-1.25h-2.084-2.083v1.5733 1.5733l1.6671-0.32332 1.6671-0.32332 0.4162-1.25zm3.25 1.75v-5h3 3v1 1h-2-2v1 1h2 2v1 1h-2-2v1 1h2c1.1 0 2.3375-0.1125 2.75-0.25l0.75-0.25 0.05924-3.5 0.05924-3.5 2.5264-0.30056 2.5264-0.30056 1.322 1.5929 1.322 1.5929-1.0924 1.0924-1.0924 1.0924 1.5498 2.3652 1.55 2.365h-1.08-1.08l-1.07-2-1.0704-2h-1.0584-1.0584l-0.52301 2-0.52301 2h-4.3834-4.383v-5zm12.771-1.812 0.396-1.188h-2.084-2.083v0.83333c0 1.2619 1.2512 2.2496 2.375 1.875 0.55-0.18333 1.1781-0.86771 1.3958-1.5208zm-31.862-14.026-5.591-1.847-4.504-3.099c-2.477-1.704-5.991-4.792-7.808-6.862l-3.304-3.763-2.601-5.545-2.601-5.546v-10.516-10.516l3.2413-6.5894 3.2413-6.5894 5.0407-4.7149 5.041-4.7149 5.718-2.6203 5.718-2.6204 8.271-0.4362 8.27-0.4362 6.23 2.2517 6.229 2.2516 4.6279 3.3704 4.6279 3.3704 2.6841 3.519c1.4762 1.9354 3.8937 6.0999 5.3721 9.2544l2.688 5.736v9.5 9.5l-3.1744 6.7007-3.1744 6.7007-4.6249 4.6249-4.6249 4.6249-6.6553 3.1144-6.6553 3.1144-8.0454 0.31477-8.0454 0.31477-5.5911-1.8474zm19.529-0.68518 3.9382-0.63824 5.5618-2.8339l5.562-2.834 4.184-4.336 4.184-4.335 2.816-5.5 2.816-5.5v-10.5-10.5l-2.819-5.5-2.82-5.5-3.18-3.375c-1.75-1.856-5.431-4.809-8.181-6.562l-5-3.1873-4.486-1.2988-4.487-1.2988-6.013 0.0362-6.014 0.0362-4.843 1.646c-2.663 0.9052-6.2 2.4714-7.859 3.4804-1.659 1.0091-4.986 3.7111-7.393 6.0051l-4.3758 4.1704-2.9434 6.174-2.9434 6.174-0.49821 4.3597-0.49821 4.3597 0.97925 6.1403 0.97925 6.1403 2.3171 5 2.3171 5 4.6949 4.8348 4.6949 4.8348 5.5424 2.5374 5.5424 2.5374 5.1431 0.72782c2.83 0.401 6.044 0.597 7.144 0.436 1.1-0.16085 3.7722-0.57966 5.9382-0.93069z"/>
 </g>
</svg>
