<?xml version="1.0" encoding="UTF-8" standalone="yes"?><svg xmlns="http://www.w3.org/2000/svg" xmlns:xlink="http://www.w3.org/1999/xlink" height="1241px" style="width:860px;height:1241px;" version="1.1" viewBox="0 0 860 1241" width="860px"><defs><filter height="300%" id="f1" width="300%" x="-1" y="-1"><feGaussianBlur result="blurOut" stdDeviation="2.0"/><feColorMatrix in="blurOut" result="blurOut2" type="matrix" values="0 0 0 0 0 0 0 0 0 0 0 0 0 0 0 0 0 0 .4 0"/><feOffset dx="4.0" dy="4.0" in="blurOut2" result="blurOut3"/><feBlend in="SourceGraphic" in2="blurOut3" mode="normal"/></filter></defs><g><text fill="#000000" font-family="sans-serif" font-size="18" lengthAdjust="spacingAndGlyphs" textLength="329" x="270.5" y="16.708">Superphy Loading Pipeline Overview</text><path d="M86,167.9531 C86,164.9531 88,162.9531 91,162.9531 C94,162.9531 96,164.9531 96,167.9531 C96,164.9531 98,162.9531 101,162.9531 C104,162.9531 106,164.9531 106,167.9531 C106,164.9531 108,162.9531 111,162.9531 C114,162.9531 116,164.9531 116,167.9531 C116,164.9531 118,162.9531 121,162.9531 C124,162.9531 126,164.9531 126,167.9531 C126,164.9531 128,162.9531 131,162.9531 C134,162.9531 136,164.9531 136,167.9531 C136,164.9531 138,162.9531 141,162.9531 C144,162.9531 146,164.9531 146,167.9531 C146,164.9531 148,162.9531 151,162.9531 C154,162.9531 156,164.9531 156,167.9531 C156,164.9531 158,162.9531 161,162.9531 C164,162.9531 166,164.9531 166,167.9531 C166,164.9531 168,162.9531 171,162.9531 C174,162.9531 176,164.9531 176,167.9531 C176,164.9531 178,162.9531 181,162.9531 C184,162.9531 186,164.9531 186,167.9531 C186,164.9531 188,162.9531 191,162.9531 C194,162.9531 196,164.9531 196,167.9531 C196,164.9531 198,162.9531 201,162.9531 C204,162.9531 206,164.9531 206,167.9531 C206,164.9531 208,162.9531 211,162.9531 C214,162.9531 216,164.9531 216,167.9531 C216,164.9531 218,162.9531 221,162.9531 C224,162.9531 226,164.9531 226,167.9531 C226,164.9531 228,162.9531 231,162.9531 C234,162.9531 236,164.9531 236,167.9531 C236,164.9531 238,162.9531 241,162.9531 C244,162.9531 246,164.9531 246,167.9531 C246,164.9531 248,162.9531 251,162.9531 C254,162.9531 256,164.9531 256,167.9531 C256,164.9531 258,162.9531 261,162.9531 C264,162.9531 266,164.9531 266,167.9531 C266,164.9531 268,162.9531 271,162.9531 C274,162.9531 276,164.9531 276,167.9531 C276,164.9531 278,162.9531 281,162.9531 C284,162.9531 286,164.9531 286,167.9531 C286,164.9531 288,162.9531 291,162.9531 C294,162.9531 296,164.9531 296,167.9531 C296,164.9531 298,162.9531 301,162.9531 C304,162.9531 306,164.9531 306,167.9531 C306,164.9531 308,162.9531 311,162.9531 C314,162.9531 316,164.9531 316,167.9531 C316,164.9531 318,162.9531 321,162.9531 C324,162.9531 326,164.9531 326,167.9531 C326,164.9531 328,162.9531 331,162.9531 C334,162.9531 336,164.9531 336,167.9531 C336,164.9531 338,162.9531 341,162.9531 C344,162.9531 346,164.9531 346,167.9531 C346,164.9531 348,162.9531 351,162.9531 C354,162.9531 356,164.9531 356,167.9531 C356,164.9531 358,162.9531 361,162.9531 C364,162.9531 366,164.9531 366,167.9531 C366,164.9531 368,162.9531 371,162.9531 C374,162.9531 376,164.9531 376,167.9531 C376,164.9531 378,162.9531 381,162.9531 C384,162.9531 386,164.9531 386,167.9531 C386,164.9531 388,162.9531 391,162.9531 C394,162.9531 396,164.9531 396,167.9531 C396,164.9531 398,162.9531 401,162.9531 C404,162.9531 406,164.9531 406,167.9531 C406,164.9531 408,162.9531 411,162.9531 C414,162.9531 416,164.9531 416,167.9531 C416,164.9531 418,162.9531 421,162.9531 C424,162.9531 426,164.9531 426,167.9531 C426,164.9531 428,162.9531 431,162.9531 C434,162.9531 436,164.9531 436,167.9531 C436,164.9531 438,162.9531 441,162.9531 C444,162.9531 446,164.9531 446,167.9531 C446,164.9531 448,162.9531 451,162.9531 C454,162.9531 456,164.9531 456,167.9531 C456,164.9531 458,162.9531 461,162.9531 C464,162.9531 466,164.9531 466,167.9531 C466,164.9531 468,162.9531 471,162.9531 C474,162.9531 476,164.9531 476,167.9531 C476,164.9531 478,162.9531 481,162.9531 C484,162.9531 486,164.9531 486,167.9531 C486,164.9531 488,162.9531 491,162.9531 C494,162.9531 496,164.9531 496,167.9531 C496,164.9531 498,162.9531 501,162.9531 C504,162.9531 506,164.9531 506,167.9531 C506,164.9531 508,162.9531 511,162.9531 C514,162.9531 516,164.9531 516,167.9531 C516,164.9531 518,162.9531 521,162.9531 C524,162.9531 526,164.9531 526,167.9531 C526,164.9531 528,162.9531 531,162.9531 C534,162.9531 536,164.9531 536,167.9531 C536,164.9531 538,162.9531 541,162.9531 C544,162.9531 546,164.9531 546,167.9531 C546,164.9531 548,162.9531 551,162.9531 C554,162.9531 556,164.9531 556,167.9531 C556,164.9531 558,162.9531 561,162.9531 C564,162.9531 566,164.9531 566,167.9531 C566,164.9531 568,162.9531 571,162.9531 C574,162.9531 576,164.9531 576,167.9531 C576,164.9531 578,162.9531 581,162.9531 C584,162.9531 586,164.9531 586,167.9531 C586,164.9531 588,162.9531 591,162.9531 C594,162.9531 596,164.9531 596,167.9531 C596,164.9531 598,162.9531 601,162.9531 C604,162.9531 606,164.9531 606,167.9531 C606,164.9531 608,162.9531 611,162.9531 C614,162.9531 616,164.9531 616,167.9531 C616,164.9531 618,162.9531 621,162.9531 C624,162.9531 626,164.9531 626,167.9531 C626,164.9531 628,162.9531 631,162.9531 C634,162.9531 636,164.9531 636,167.9531 C639,167.9531 641,169.9531 641,172.9531 C641,175.9531 639,177.9531 636,177.9531 C639,177.9531 641,179.9531 641,182.9531 C641,185.9531 639,187.9531 636,187.9531 C639,187.9531 641,189.9531 641,192.9531 C641,195.9531 639,197.9531 636,197.9531 C639,197.9531 641,199.9531 641,202.9531 C641,205.9531 639,207.9531 636,207.9531 C639,207.9531 641,209.9531 641,212.9531 C641,215.9531 639,217.9531 636,217.9531 C639,217.9531 641,219.9531 641,222.9531 C641,225.9531 639,227.9531 636,227.9531 C639,227.9531 641,229.9531 641,232.9531 C641,235.9531 639,237.9531 636,237.9531 C639,237.9531 641,239.9531 641,242.9531 C641,245.9531 639,247.9531 636,247.9531 C639,247.9531 641,249.9531 641,252.9531 C641,255.9531 639,257.9531 636,257.9531 C639,257.9531 641,259.9531 641,262.9531 C641,265.9531 639,267.9531 636,267.9531 C639,267.9531 641,269.9531 641,272.9531 C641,275.9531 639,277.9531 636,277.9531 C639,277.9531 641,279.9531 641,282.9531 C641,285.9531 639,287.9531 636,287.9531 C639,287.9531 641,289.9531 641,292.9531 C641,295.9531 639,297.9531 636,297.9531 C639,297.9531 641,299.9531 641,302.9531 C641,305.9531 639,307.9531 636,307.9531 C639,307.9531 641,309.9531 641,312.9531 C641,315.9531 639,317.9531 636,317.9531 C639,317.9531 641,319.9531 641,322.9531 C641,325.9531 639,327.9531 636,327.9531 C639,327.9531 641,329.9531 641,332.9531 C641,335.9531 639,337.9531 636,337.9531 C639,337.9531 641,339.9531 641,342.9531 C641,345.9531 639,347.9531 636,347.9531 C639,347.9531 641,349.9531 641,352.9531 C641,355.9531 639,357.9531 636,357.9531 C639,357.9531 641,359.9531 641,362.9531 C641,365.9531 639,367.9531 636,367.9531 C639,367.9531 641,369.9531 641,372.9531 C641,375.9531 639,377.9531 636,377.9531 C639,377.9531 641,379.9531 641,382.9531 C641,385.9531 639,387.9531 636,387.9531 C639,387.9531 641,389.9531 641,392.9531 C641,395.9531 639,397.9531 636,397.9531 C639,397.9531 641,399.9531 641,402.9531 C641,405.9531 639,407.9531 636,407.9531 C639,407.9531 641,409.9531 641,412.9531 C641,415.9531 639,417.9531 636,417.9531 C636,420.9531 633,422.9531 631,422.9531 C628,422.9531 626,420.9531 626,417.9531 C626,420.9531 623,422.9531 621,422.9531 C618,422.9531 616,420.9531 616,417.9531 C616,420.9531 613,422.9531 611,422.9531 C608,422.9531 606,420.9531 606,417.9531 C606,420.9531 603,422.9531 601,422.9531 C598,422.9531 596,420.9531 596,417.9531 C596,420.9531 593,422.9531 591,422.9531 C588,422.9531 586,420.9531 586,417.9531 C586,420.9531 583,422.9531 581,422.9531 C578,422.9531 576,420.9531 576,417.9531 C576,420.9531 573,422.9531 571,422.9531 C568,422.9531 566,420.9531 566,417.9531 C566,420.9531 563,422.9531 561,422.9531 C558,422.9531 556,420.9531 556,417.9531 C556,420.9531 553,422.9531 551,422.9531 C548,422.9531 546,420.9531 546,417.9531 C546,420.9531 543,422.9531 541,422.9531 C538,422.9531 536,420.9531 536,417.9531 C536,420.9531 533,422.9531 531,422.9531 C528,422.9531 526,420.9531 526,417.9531 C526,420.9531 523,422.9531 521,422.9531 C518,422.9531 516,420.9531 516,417.9531 C516,420.9531 513,422.9531 511,422.9531 C508,422.9531 506,420.9531 506,417.9531 C506,420.9531 503,422.9531 501,422.9531 C498,422.9531 496,420.9531 496,417.9531 C496,420.9531 493,422.9531 491,422.9531 C488,422.9531 486,420.9531 486,417.9531 C486,420.9531 483,422.9531 481,422.9531 C478,422.9531 476,420.9531 476,417.9531 C476,420.9531 473,422.9531 471,422.9531 C468,422.9531 466,420.9531 466,417.9531 C466,420.9531 463,422.9531 461,422.9531 C458,422.9531 456,420.9531 456,417.9531 C456,420.9531 453,422.9531 451,422.9531 C448,422.9531 446,420.9531 446,417.9531 C446,420.9531 443,422.9531 441,422.9531 C438,422.9531 436,420.9531 436,417.9531 C436,420.9531 433,422.9531 431,422.9531 C428,422.9531 426,420.9531 426,417.9531 C426,420.9531 423,422.9531 421,422.9531 C418,422.9531 416,420.9531 416,417.9531 C416,420.9531 413,422.9531 411,422.9531 C408,422.9531 406,420.9531 406,417.9531 C406,420.9531 403,422.9531 401,422.9531 C398,422.9531 396,420.9531 396,417.9531 C396,420.9531 393,422.9531 391,422.9531 C388,422.9531 386,420.9531 386,417.9531 C386,420.9531 383,422.9531 381,422.9531 C378,422.9531 376,420.9531 376,417.9531 C376,420.9531 373,422.9531 371,422.9531 C368,422.9531 366,420.9531 366,417.9531 C366,420.9531 363,422.9531 361,422.9531 C358,422.9531 356,420.9531 356,417.9531 C356,420.9531 353,422.9531 351,422.9531 C348,422.9531 346,420.9531 346,417.9531 C346,420.9531 343,422.9531 341,422.9531 C338,422.9531 336,420.9531 336,417.9531 C336,420.9531 333,422.9531 331,422.9531 C328,422.9531 326,420.9531 326,417.9531 C326,420.9531 323,422.9531 321,422.9531 C318,422.9531 316,420.9531 316,417.9531 C316,420.9531 313,422.9531 311,422.9531 C308,422.9531 306,420.9531 306,417.9531 C306,420.9531 303,422.9531 301,422.9531 C298,422.9531 296,420.9531 296,417.9531 C296,420.9531 293,422.9531 291,422.9531 C288,422.9531 286,420.9531 286,417.9531 C286,420.9531 283,422.9531 281,422.9531 C278,422.9531 276,420.9531 276,417.9531 C276,420.9531 273,422.9531 271,422.9531 C268,422.9531 266,420.9531 266,417.9531 C266,420.9531 263,422.9531 261,422.9531 C258,422.9531 256,420.9531 256,417.9531 C256,420.9531 253,422.9531 251,422.9531 C248,422.9531 246,420.9531 246,417.9531 C246,420.9531 243,422.9531 241,422.9531 C238,422.9531 236,420.9531 236,417.9531 C236,420.9531 233,422.9531 231,422.9531 C228,422.9531 226,420.9531 226,417.9531 C226,420.9531 223,422.9531 221,422.9531 C218,422.9531 216,420.9531 216,417.9531 C216,420.9531 213,422.9531 211,422.9531 C208,422.9531 206,420.9531 206,417.9531 C206,420.9531 203,422.9531 201,422.9531 C198,422.9531 196,420.9531 196,417.9531 C196,420.9531 193,422.9531 191,422.9531 C188,422.9531 186,420.9531 186,417.9531 C186,420.9531 183,422.9531 181,422.9531 C178,422.9531 176,420.9531 176,417.9531 C176,420.9531 173,422.9531 171,422.9531 C168,422.9531 166,420.9531 166,417.9531 C166,420.9531 163,422.9531 161,422.9531 C158,422.9531 156,420.9531 156,417.9531 C156,420.9531 153,422.9531 151,422.9531 C148,422.9531 146,420.9531 146,417.9531 C146,420.9531 143,422.9531 141,422.9531 C138,422.9531 136,420.9531 136,417.9531 C136,420.9531 133,422.9531 131,422.9531 C128,422.9531 126,420.9531 126,417.9531 C126,420.9531 123,422.9531 121,422.9531 C118,422.9531 116,420.9531 116,417.9531 C116,420.9531 113,422.9531 111,422.9531 C108,422.9531 106,420.9531 106,417.9531 C106,420.9531 103,422.9531 101,422.9531 C98,422.9531 96,420.9531 96,417.9531 C96,420.9531 93,422.9531 91,422.9531 C88,422.9531 86,420.9531 86,417.9531 C83,417.9531 81,415.9531 81,412.9531 C81,409.9531 83,407.9531 86,407.9531 C83,407.9531 81,405.9531 81,402.9531 C81,399.9531 83,397.9531 86,397.9531 C83,397.9531 81,395.9531 81,392.9531 C81,389.9531 83,387.9531 86,387.9531 C83,387.9531 81,385.9531 81,382.9531 C81,379.9531 83,377.9531 86,377.9531 C83,377.9531 81,375.9531 81,372.9531 C81,369.9531 83,367.9531 86,367.9531 C83,367.9531 81,365.9531 81,362.9531 C81,359.9531 83,357.9531 86,357.9531 C83,357.9531 81,355.9531 81,352.9531 C81,349.9531 83,347.9531 86,347.9531 C83,347.9531 81,345.9531 81,342.9531 C81,339.9531 83,337.9531 86,337.9531 C83,337.9531 81,335.9531 81,332.9531 C81,329.9531 83,327.9531 86,327.9531 C83,327.9531 81,325.9531 81,322.9531 C81,319.9531 83,317.9531 86,317.9531 C83,317.9531 81,315.9531 81,312.9531 C81,309.9531 83,307.9531 86,307.9531 C83,307.9531 81,305.9531 81,302.9531 C81,299.9531 83,297.9531 86,297.9531 C83,297.9531 81,295.9531 81,292.9531 C81,289.9531 83,287.9531 86,287.9531 C83,287.9531 81,285.9531 81,282.9531 C81,279.9531 83,277.9531 86,277.9531 C83,277.9531 81,275.9531 81,272.9531 C81,269.9531 83,267.9531 86,267.9531 C83,267.9531 81,265.9531 81,262.9531 C81,259.9531 83,257.9531 86,257.9531 C83,257.9531 81,255.9531 81,252.9531 C81,249.9531 83,247.9531 86,247.9531 C83,247.9531 81,245.9531 81,242.9531 C81,239.9531 83,237.9531 86,237.9531 C83,237.9531 81,235.9531 81,232.9531 C81,229.9531 83,227.9531 86,227.9531 C83,227.9531 81,225.9531 81,222.9531 C81,219.9531 83,217.9531 86,217.9531 C83,217.9531 81,215.9531 81,212.9531 C81,209.9531 83,207.9531 86,207.9531 C83,207.9531 81,205.9531 81,202.9531 C81,199.9531 83,197.9531 86,197.9531 C83,197.9531 81,195.9531 81,192.9531 C81,189.9531 83,187.9531 86,187.9531 C83,187.9531 81,185.9531 81,182.9531 C81,179.9531 83,177.9531 86,177.9531 C83,177.9531 81,175.9531 81,172.9531 C81,169.9531 83,167.9531 86,167.9531 " fill="#FFFFFF" filter="url(#f1)" style="stroke: #000000; stroke-width: 2.0;"/><text fill="#000000" font-family="sans-serif" font-size="14" font-weight="bold" lengthAdjust="spacingAndGlyphs" textLength="40" x="340.5" y="186.9482">input</text><ellipse cx="252.25" cy="207.4531" fill="#FEFECE" filter="url(#f1)" rx="8" ry="8" style="stroke: #A80036; stroke-width: 2.0;"/><path d="M252.25,215.4531 L252.25,242.4531 M239.25,223.4531 L265.25,223.4531 M252.25,242.4531 L239.25,257.4531 M252.25,242.4531 L265.25,257.4531 " fill="#FEFECE" filter="url(#f1)" style="stroke: #A80036; stroke-width: 2.0;"/><text fill="#000000" font-family="sans-serif" font-size="14" lengthAdjust="spacingAndGlyphs" textLength="51" x="226.75" y="277.4482">Curator</text><ellipse cx="571.5" cy="230.9531" fill="#FEFECE" filter="url(#f1)" rx="8" ry="8" style="stroke: #A80036; stroke-width: 2.0;"/><text fill="#000000" font-family="sans-serif" font-size="14" lengthAdjust="spacingAndGlyphs" textLength="102" x="520.5" y="252.9482">Web Front End</text><path d="M330.75,228.4531 C330.75,218.4531 372.25,218.4531 372.25,218.4531 C372.25,218.4531 413.75,218.4531 413.75,228.4531 L413.75,249.75 C413.75,259.75 372.25,259.75 372.25,259.75 C372.25,259.75 330.75,259.75 330.75,249.75 L330.75,228.4531 " fill="#FEFECE" filter="url(#f1)" style="stroke: #000000; stroke-width: 1.5;"/><path d="M330.75,228.4531 C330.75,238.4531 372.25,238.4531 372.25,238.4531 C372.25,238.4531 413.75,238.4531 413.75,228.4531 " fill="none" style="stroke: #000000; stroke-width: 1.5;"/><text fill="#000000" font-family="sans-serif" font-size="14" lengthAdjust="spacingAndGlyphs" textLength="63" x="340.75" y="251.4482">Genbank</text><path d="M99,228.4531 C99,218.4531 145,218.4531 145,218.4531 C145,218.4531 191,218.4531 191,228.4531 L191,249.75 C191,259.75 145,259.75 145,259.75 C145,259.75 99,259.75 99,249.75 L99,228.4531 " fill="#FEFECE" filter="url(#f1)" style="stroke: #000000; stroke-width: 1.5;"/><path d="M99,228.4531 C99,238.4531 145,238.4531 145,238.4531 C145,238.4531 191,238.4531 191,228.4531 " fill="none" style="stroke: #000000; stroke-width: 1.5;"/><text fill="#000000" font-family="sans-serif" font-size="14" lengthAdjust="spacingAndGlyphs" textLength="72" x="109" y="251.4482">Biosample</text><rect fill="#FEFECE" filter="url(#f1)" height="36.2969" style="stroke: #A80036; stroke-width: 1.5;" width="58" x="112.5" y="374.9531"/><rect fill="#FEFECE" height="5" style="stroke: #A80036; stroke-width: 1.5;" width="10" x="107.5" y="379.9531"/><rect fill="#FEFECE" height="5" style="stroke: #A80036; stroke-width: 1.5;" width="10" x="107.5" y="401.25"/><text fill="#000000" font-family="sans-serif" font-size="14" lengthAdjust="spacingAndGlyphs" textLength="38" x="122.5" y="397.9482">Miner</text><rect fill="#FEFECE" filter="url(#f1)" height="36.2969" style="stroke: #A80036; stroke-width: 1.5;" width="68" x="554" y="374.9531"/><rect fill="#FEFECE" height="5" style="stroke: #A80036; stroke-width: 1.5;" width="10" x="549" y="379.9531"/><rect fill="#FEFECE" height="5" style="stroke: #A80036; stroke-width: 1.5;" width="10" x="549" y="401.25"/><text fill="#000000" font-family="sans-serif" font-size="14" lengthAdjust="spacingAndGlyphs" textLength="48" x="564" y="397.9482">Upload</text><ellipse cx="571" cy="39.4531" fill="#FEFECE" filter="url(#f1)" rx="8" ry="8" style="stroke: #A80036; stroke-width: 2.0;"/><path d="M571,47.4531 L571,74.4531 M558,55.4531 L584,55.4531 M571,74.4531 L558,89.4531 M571,74.4531 L584,89.4531 " fill="#FEFECE" filter="url(#f1)" style="stroke: #A80036; stroke-width: 2.0;"/><text fill="#000000" font-family="sans-serif" font-size="14" lengthAdjust="spacingAndGlyphs" textLength="32" x="555" y="109.4482">User</text><rect fill="#FEFECE" filter="url(#f1)" height="36.2969" style="stroke: #A80036; stroke-width: 1.5;" width="207" x="277.75" y="491.9531"/><rect fill="#FEFECE" height="5" style="stroke: #A80036; stroke-width: 1.5;" width="10" x="272.75" y="496.9531"/><rect fill="#FEFECE" height="5" style="stroke: #A80036; stroke-width: 1.5;" width="10" x="272.75" y="518.25"/><text fill="#000000" font-family="sans-serif" font-size="14" lengthAdjust="spacingAndGlyphs" textLength="187" x="287.75" y="514.9482">Sequence validation, part 1</text><ellipse cx="123.9969" cy="510.0389" fill="#FEFECE" filter="url(#f1)" rx="117.9969" ry="34.5858" style="stroke: #A80036; stroke-width: 1.5;"/><text fill="#000000" font-family="sans-serif" font-size="14" lengthAdjust="spacingAndGlyphs" textLength="178" x="34.9969" y="502.8336">Ontology based metadata</text><text fill="#000000" font-family="sans-serif" font-size="14" lengthAdjust="spacingAndGlyphs" textLength="103" x="72.4969" y="519.1304">extraction from</text><text fill="#000000" font-family="sans-serif" font-size="14" lengthAdjust="spacingAndGlyphs" textLength="93" x="77.4969" y="535.4273">free-form text</text><ellipse cx="626.1731" cy="509.9261" fill="#FEFECE" filter="url(#f1)" rx="106.4231" ry="25.473" style="stroke: #A80036; stroke-width: 1.5;"/><text fill="#000000" font-family="sans-serif" font-size="14" lengthAdjust="spacingAndGlyphs" textLength="134" x="559.1731" y="505.6033">Metadata from user</text><text fill="#000000" font-family="sans-serif" font-size="14" lengthAdjust="spacingAndGlyphs" textLength="150" x="551.1731" y="521.9002">according to ontology</text><ellipse cx="361.0869" cy="644.986" fill="#FEFECE" filter="url(#f1)" rx="163.3369" ry="37.5329" style="stroke: #A80036; stroke-width: 1.5;"/><text fill="#000000" font-family="sans-serif" font-size="14" lengthAdjust="spacingAndGlyphs" textLength="227" x="247.5869" y="633.3913">Initial checks based on attributes</text><text fill="#000000" font-family="sans-serif" font-size="14" lengthAdjust="spacingAndGlyphs" textLength="166" x="278.0869" y="649.6882">e.g. length, number and</text><text fill="#000000" font-family="sans-serif" font-size="14" lengthAdjust="spacingAndGlyphs" textLength="226" x="248.0869" y="665.9851">uniqueness e.g. MD5 Checksum</text><rect fill="#FEFECE" filter="url(#f1)" height="36.2969" style="stroke: #A80036; stroke-width: 1.5;" width="135" x="559.75" y="626.9531"/><rect fill="#FEFECE" height="5" style="stroke: #A80036; stroke-width: 1.5;" width="10" x="554.75" y="631.9531"/><rect fill="#FEFECE" height="5" style="stroke: #A80036; stroke-width: 1.5;" width="10" x="554.75" y="653.25"/><text fill="#000000" font-family="sans-serif" font-size="14" lengthAdjust="spacingAndGlyphs" textLength="115" x="569.75" y="649.9482">Superphy queue</text><rect fill="#FEFECE" filter="url(#f1)" height="36.2969" style="stroke: #A80036; stroke-width: 1.5;" width="122" x="566" y="744.9531"/><rect fill="#FEFECE" height="5" style="stroke: #A80036; stroke-width: 1.5;" width="10" x="561" y="749.9531"/><rect fill="#FEFECE" height="5" style="stroke: #A80036; stroke-width: 1.5;" width="10" x="561" y="771.25"/><text fill="#000000" font-family="sans-serif" font-size="14" lengthAdjust="spacingAndGlyphs" textLength="102" x="576" y="767.9482">Load metadata</text><rect fill="#FEFECE" filter="url(#f1)" height="36.2969" style="stroke: #A80036; stroke-width: 1.5;" width="199" x="221.75" y="842.9531"/><rect fill="#FEFECE" height="5" style="stroke: #A80036; stroke-width: 1.5;" width="10" x="216.75" y="847.9531"/><rect fill="#FEFECE" height="5" style="stroke: #A80036; stroke-width: 1.5;" width="10" x="216.75" y="869.25"/><text fill="#000000" font-family="sans-serif" font-size="14" lengthAdjust="spacingAndGlyphs" textLength="179" x="231.75" y="865.9482">Panseq for AMR/VF genes</text><rect fill="#FEFECE" filter="url(#f1)" height="36.2969" style="stroke: #A80036; stroke-width: 1.5;" width="182" x="536" y="842.9531"/><rect fill="#FEFECE" height="5" style="stroke: #A80036; stroke-width: 1.5;" width="10" x="531" y="847.9531"/><rect fill="#FEFECE" height="5" style="stroke: #A80036; stroke-width: 1.5;" width="10" x="531" y="869.25"/><text fill="#000000" font-family="sans-serif" font-size="14" lengthAdjust="spacingAndGlyphs" textLength="162" x="546" y="865.9482">Panseq for pangenome</text><rect fill="#FEFECE" filter="url(#f1)" height="36.2969" style="stroke: #A80036; stroke-width: 1.5;" width="185" x="221.75" y="940.9531"/><rect fill="#FEFECE" height="5" style="stroke: #A80036; stroke-width: 1.5;" width="10" x="216.75" y="945.9531"/><rect fill="#FEFECE" height="5" style="stroke: #A80036; stroke-width: 1.5;" width="10" x="216.75" y="967.25"/><text fill="#000000" font-family="sans-serif" font-size="14" lengthAdjust="spacingAndGlyphs" textLength="165" x="231.75" y="963.9482">AMR/VF MSAs and trees</text><rect fill="#FEFECE" filter="url(#f1)" height="36.2969" style="stroke: #A80036; stroke-width: 1.5;" width="216" x="519" y="940.9531"/><rect fill="#FEFECE" height="5" style="stroke: #A80036; stroke-width: 1.5;" width="10" x="514" y="945.9531"/><rect fill="#FEFECE" height="5" style="stroke: #A80036; stroke-width: 1.5;" width="10" x="514" y="967.25"/><text fill="#000000" font-family="sans-serif" font-size="14" lengthAdjust="spacingAndGlyphs" textLength="196" x="529" y="963.9482">Pangenome MSAs and trees</text><rect fill="#FEFECE" filter="url(#f1)" height="36.2969" style="stroke: #A80036; stroke-width: 1.5;" width="89" x="191.75" y="1038.9531"/><rect fill="#FEFECE" height="5" style="stroke: #A80036; stroke-width: 1.5;" width="10" x="186.75" y="1043.9531"/><rect fill="#FEFECE" height="5" style="stroke: #A80036; stroke-width: 1.5;" width="10" x="186.75" y="1065.25"/><text fill="#000000" font-family="sans-serif" font-size="14" lengthAdjust="spacingAndGlyphs" textLength="69" x="201.75" y="1061.9482">Subtyping</text><path d="M622.75,60.4531 C622.75,50.4531 676.25,50.4531 676.25,50.4531 C676.25,50.4531 729.75,50.4531 729.75,60.4531 L729.75,81.75 C729.75,91.75 676.25,91.75 676.25,91.75 C676.25,91.75 622.75,91.75 622.75,81.75 L622.75,60.4531 " fill="#FEFECE" filter="url(#f1)" style="stroke: #000000; stroke-width: 1.5;"/><path d="M622.75,60.4531 C622.75,70.4531 676.25,70.4531 676.25,70.4531 C676.25,70.4531 729.75,70.4531 729.75,60.4531 " fill="none" style="stroke: #000000; stroke-width: 1.5;"/><text fill="#000000" font-family="sans-serif" font-size="14" lengthAdjust="spacingAndGlyphs" textLength="87" x="632.75" y="83.4482">SuperphyDB</text><rect fill="#FEFECE" filter="url(#f1)" height="36.2969" style="stroke: #A80036; stroke-width: 1.5;" width="139" x="557.75" y="1038.9531"/><rect fill="#FEFECE" height="5" style="stroke: #A80036; stroke-width: 1.5;" width="10" x="552.75" y="1043.9531"/><rect fill="#FEFECE" height="5" style="stroke: #A80036; stroke-width: 1.5;" width="10" x="552.75" y="1065.25"/><text fill="#000000" font-family="sans-serif" font-size="14" lengthAdjust="spacingAndGlyphs" textLength="119" x="567.75" y="1061.9482">SNP computation</text><rect fill="#FEFECE" filter="url(#f1)" height="36.2969" style="stroke: #A80036; stroke-width: 1.5;" width="111" x="740.75" y="1167.9531"/><rect fill="#FEFECE" height="5" style="stroke: #A80036; stroke-width: 1.5;" width="10" x="735.75" y="1172.9531"/><rect fill="#FEFECE" height="5" style="stroke: #A80036; stroke-width: 1.5;" width="10" x="735.75" y="1194.25"/><text fill="#000000" font-family="sans-serif" font-size="14" lengthAdjust="spacingAndGlyphs" textLength="91" x="750.75" y="1190.9482">R/Shiny input</text><rect fill="#FEFECE" filter="url(#f1)" height="36.2969" style="stroke: #A80036; stroke-width: 1.5;" width="207" x="315.75" y="1038.9531"/><rect fill="#FEFECE" height="5" style="stroke: #A80036; stroke-width: 1.5;" width="10" x="310.75" y="1043.9531"/><rect fill="#FEFECE" height="5" style="stroke: #A80036; stroke-width: 1.5;" width="10" x="310.75" y="1065.25"/><text fill="#000000" font-family="sans-serif" font-size="14" lengthAdjust="spacingAndGlyphs" textLength="187" x="325.75" y="1061.9482">Sequence validation, part 2</text><rect fill="#FEFECE" filter="url(#f1)" height="36.2969" style="stroke: #A80036; stroke-width: 1.5;" width="157" x="548.75" y="1167.9531"/><rect fill="#FEFECE" height="5" style="stroke: #A80036; stroke-width: 1.5;" width="10" x="543.75" y="1172.9531"/><rect fill="#FEFECE" height="5" style="stroke: #A80036; stroke-width: 1.5;" width="10" x="543.75" y="1194.25"/><text fill="#000000" font-family="sans-serif" font-size="14" lengthAdjust="spacingAndGlyphs" textLength="137" x="558.75" y="1190.9482">Global genome tree</text><ellipse cx="371.4058" cy="1185.932" fill="#FEFECE" filter="url(#f1)" rx="142.6558" ry="48.9789" style="stroke: #A80036; stroke-width: 1.5;"/><text fill="#000000" font-family="sans-serif" font-size="14" lengthAdjust="spacingAndGlyphs" textLength="196" x="273.4058" y="1165.9713">Secondary checks based on</text><text fill="#000000" font-family="sans-serif" font-size="14" lengthAdjust="spacingAndGlyphs" textLength="180" x="281.4058" y="1182.2682">composition e.g. core and</text><text fill="#000000" font-family="sans-serif" font-size="14" lengthAdjust="spacingAndGlyphs" textLength="148" x="297.4058" y="1198.5651">accessory fragments,</text><text fill="#000000" font-family="sans-serif" font-size="14" lengthAdjust="spacingAndGlyphs" textLength="198" x="272.4058" y="1214.8619">species e.g. E.coli fragments</text><path d="M370.169,259.6791 C366.891,283.4171 357.832,322.8371 333,344.9531 C288.763,384.3521 216.888,391.9871 174.759,392.7821 " fill="none" style="stroke: #A80036; stroke-width: 1.0;"/><polygon fill="#A80036" points="169.522,392.8481,178.5716,396.7347,174.5216,392.7853,178.471,388.7353,169.522,392.8481" style="stroke: #A80036; stroke-width: 1.0;"/><text fill="#000000" font-family="sans-serif" font-size="13" lengthAdjust="spacingAndGlyphs" textLength="157" x="398.5" y="324.52">Generic meta-data JSON</text><text fill="#000000" font-family="sans-serif" font-size="13" lengthAdjust="spacingAndGlyphs" textLength="240" x="357" y="339.6528">e.g. accession: { attribute: value, ... }</text><path d="M130.294,259.5621 C121.028,273.1891 109.918,292.2051 105,310.9531 C101.1659,325.5701 100.1489,330.6421 105,344.9531 C108.174,354.3161 114.045,363.2781 120.138,370.8191 " fill="none" style="stroke: #A80036; stroke-width: 1.0;"/><polygon fill="#A80036" points="123.531,374.8561,120.8034,365.3925,120.3144,371.0282,114.6787,370.5391,123.531,374.8561" style="stroke: #A80036; stroke-width: 1.0;"/><path d="M571,112.5631 C571,145.3631 571,190.2231 571,216.4531 " fill="none" style="stroke: #A80036; stroke-width: 1.0;"/><polygon fill="#A80036" points="571,221.7531,575,212.7531,571,216.7531,567,212.7531,571,221.7531" style="stroke: #A80036; stroke-width: 1.0;"/><path d="M585.055,256.1251 C595.881,269.7211 609.98,290.2101 616,310.9531 C620.212,325.4651 620.011,330.3841 616,344.9531 C613.578,353.7501 609.031,362.5631 604.295,370.1411 " fill="none" style="stroke: #A80036; stroke-width: 1.0;"/><polygon fill="#A80036" points="601.339,374.6891,609.5975,369.3229,604.0638,370.4968,602.8899,364.9631,601.339,374.6891" style="stroke: #A80036; stroke-width: 1.0;"/><path d="M138.418,411.4191 C135.929,428.2581 132.095,454.1921 129.006,475.0861 " fill="none" style="stroke: #A80036; stroke-width: 1.0; stroke-dasharray: 7.0,7.0;"/><path d="M593.771,411.4191 C600.208,430.8971 610.665,462.5441 617.914,484.4831 " fill="none" style="stroke: #A80036; stroke-width: 1.0; stroke-dasharray: 7.0,7.0;"/><path d="M226.72,266.2601 C220.881,271.5291 214.473,276.7351 208,280.9531 C179.641,299.4321 156.633,282.6951 138,310.9531 C126.627,328.2011 129.285,352.3051 133.622,369.7301 " fill="none" style="stroke: #A80036; stroke-width: 1.0;"/><polygon fill="#A80036" points="135.008,374.9081,136.5448,365.1799,133.7152,370.0782,128.8169,367.2485,135.008,374.9081" style="stroke: #A80036; stroke-width: 1.0;"/><text fill="#000000" font-family="sans-serif" font-size="13" lengthAdjust="spacingAndGlyphs" textLength="125" x="170.5" y="324.52">JSON validation and</text><text fill="#000000" font-family="sans-serif" font-size="13" lengthAdjust="spacingAndGlyphs" textLength="188" x="139" y="339.6528">override rules for data source</text><path d="M169.95,407.8251 C212.584,428.2541 292.416,466.5071 340.738,489.6611 " fill="none" style="stroke: #A80036; stroke-width: 1.0;"/><polygon fill="#A80036" points="345.314,491.8531,338.9267,484.3563,340.8051,489.6922,335.4692,491.5706,345.314,491.8531" style="stroke: #A80036; stroke-width: 1.0;"/><path d="M557.01,411.1701 C519.402,432.0631 456.127,467.2161 416.567,489.1941 " fill="none" style="stroke: #A80036; stroke-width: 1.0;"/><polygon fill="#A80036" points="411.863,491.8071,421.6729,490.9316,416.2334,489.3783,417.7868,483.9389,411.863,491.8071" style="stroke: #A80036; stroke-width: 1.0;"/><path d="M378.426,528.0681 C375.43,547.9931 370.396,581.4691 366.507,607.3321 " fill="none" style="stroke: #A80036; stroke-width: 1.0; stroke-dasharray: 7.0,7.0;"/><path d="M412.657,528.0681 C458.416,552.8081 542.815,598.4381 590.925,624.4491 " fill="none" style="stroke: #A80036; stroke-width: 1.0;"/><polygon fill="#A80036" points="595.465,626.9041,589.451,619.1046,591.0669,624.5258,585.6457,626.1416,595.465,626.9041" style="stroke: #A80036; stroke-width: 1.0;"/><path d="M627,663.0691 C627,683.3731 627,717.2781 627,739.6271 " fill="none" style="stroke: #A80036; stroke-width: 1.0;"/><polygon fill="#A80036" points="627,744.7671,631,735.7671,627,739.7671,623,735.7671,627,744.7671" style="stroke: #A80036; stroke-width: 1.0;"/><path d="M572.646,781.0051 C518.632,797.9511 436.022,823.8681 380.33,841.3401 " fill="none" style="stroke: #A80036; stroke-width: 1.0;"/><polygon fill="#A80036" points="375.362,842.8981,385.1468,844.0194,380.1325,841.4008,382.7511,836.3865,375.362,842.8981" style="stroke: #A80036; stroke-width: 1.0;"/><path d="M627,781.1161 C627,796.9521 627,820.5531 627,837.8041 " fill="none" style="stroke: #A80036; stroke-width: 1.0;"/><polygon fill="#A80036" points="627,842.9391,631,833.9391,627,837.9391,623,833.9391,627,842.9391" style="stroke: #A80036; stroke-width: 1.0;"/><path d="M319.749,879.1161 C318.594,894.9521 316.873,918.5531 315.615,935.8041 " fill="none" style="stroke: #A80036; stroke-width: 1.0;"/><polygon fill="#A80036" points="315.241,940.9391,319.8836,932.2531,315.6038,935.9523,311.9046,931.6726,315.241,940.9391" style="stroke: #A80036; stroke-width: 1.0;"/><path d="M627,879.1161 C627,894.9521 627,918.5531 627,935.8041 " fill="none" style="stroke: #A80036; stroke-width: 1.0;"/><polygon fill="#A80036" points="627,940.9391,631,931.9391,627,935.9391,623,931.9391,627,940.9391" style="stroke: #A80036; stroke-width: 1.0;"/><path d="M300.055,977.1161 C286.967,993.2251 267.35,1017.3691 253.276,1034.6911 " fill="none" style="stroke: #A80036; stroke-width: 1.0;"/><polygon fill="#A80036" points="249.824,1038.9391,258.604,1034.477,252.9772,1035.0587,252.3954,1029.4319,249.824,1038.9391" style="stroke: #A80036; stroke-width: 1.0;"/><path d="M589.814,977.1161 C553.581,993.8391 498.584,1019.2221 460.841,1036.6421 " fill="none" style="stroke: #A80036; stroke-width: 1.0;"/><polygon fill="#A80036" points="455.864,1038.9391,465.7119,1038.8014,460.4042,1036.8447,462.3609,1031.5371,455.864,1038.9391" style="stroke: #A80036; stroke-width: 1.0;"/><path d="M627,977.1161 C627,992.9521 627,1016.5531 627,1033.8041 " fill="none" style="stroke: #A80036; stroke-width: 1.0;"/><polygon fill="#A80036" points="627,1038.9391,631,1029.9391,627,1033.9391,623,1029.9391,627,1038.9391" style="stroke: #A80036; stroke-width: 1.0;"/><path d="M649.281,977.1321 C667.789,992.1281 694.059,1015.1611 713,1038.9531 C745.062,1079.2271 772.378,1133.3931 786.244,1163.1337 " fill="none" style="stroke: #A80036; stroke-width: 1.0;"/><polygon fill="#A80036" points="788.353,1167.6913,788.2046,1157.8436,786.2537,1163.1534,780.9439,1161.2024,788.353,1167.6913" style="stroke: #A80036; stroke-width: 1.0;"/><path d="M649.792,1075.0811 C680.747,1098.3431 735.995,1139.8607 768.994,1164.6585 " fill="none" style="stroke: #A80036; stroke-width: 1.0;"/><polygon fill="#A80036" points="773.3,1167.8943,768.5088,1159.2894,769.3031,1164.8902,763.7023,1165.6845,773.3,1167.8943" style="stroke: #A80036; stroke-width: 1.0;"/><path d="M627,1075.0811 C627,1097.7101 627,1137.6151 627,1162.5981 " fill="none" style="stroke: #A80036; stroke-width: 1.0;"/><polygon fill="#A80036" points="627,1167.6911,631,1158.6911,627,1162.6911,623,1158.6911,627,1167.6911" style="stroke: #A80036; stroke-width: 1.0;"/><path d="M688.117,768.9231 C744.982,777.2881 821,799.7331 821,859.9531 C821,859.9531 821,859.9531 821,1057.9531 C821,1095.2961 810.465,1137.6733 803.073,1162.8129 " fill="none" style="stroke: #A80036; stroke-width: 1.0;"/><polygon fill="#A80036" points="801.548,1167.9077,807.9599,1160.4319,802.9812,1163.1175,800.2956,1158.1388,801.548,1167.9077" style="stroke: #A80036; stroke-width: 1.0;"/><path d="M412.527,1075.0811 C406.513,1090.9921 397.271,1115.4431 389.032,1137.2437 " fill="none" style="stroke: #A80036; stroke-width: 1.0; stroke-dasharray: 7.0,7.0;"/></g></svg>